# MagicaVoxel @ Ephtracy

# material
mtllib body2.mtl
usemtl palette

# normals
vn -1 0 0
vn 1 0 0
vn 0 0 1
vn 0 0 -1
vn 0 -1 0
vn 0 1 0

# texcoords
vt 0.00195313 0.5
vt 0.166016 0.5
vt 0.634766 0.5
vt 0.638672 0.5
vt 0.978516 0.5
vt 0.982422 0.5

# verts
v -2 2 1.5
v -2 2 0.5
v -2 2 -0.5
v -2 2 -1.5
v -2 3 1.5
v -2 3 0.5
v -2 3 -0.5
v -2 3 -1.5
v -2 4 1.5
v -2 4 0.5
v -2 4 -0.5
v -2 4 -1.5
v -2 5 1.5
v -2 5 0.5
v -2 5 -0.5
v -2 5 -1.5
v -2 6 1.5
v -2 6 0.5
v -2 6 -1.5
v 2 2 1.5
v 2 2 0.5
v 2 2 -0.5
v 2 2 -1.5
v 2 3 1.5
v 2 3 0.5
v 2 3 -0.5
v 2 3 -1.5
v 2 4 1.5
v 2 4 0.5
v 2 4 -0.5
v 2 4 -1.5
v 2 5 1.5
v 2 5 0.5
v 2 5 -0.5
v 2 5 -1.5
v 2 6 1.5
v 2 6 -1.5
v -2 2 1.5
v -2 3 1.5
v -2 4 1.5
v -2 5 1.5
v -2 6 1.5
v 0 2 1.5
v 0 3 1.5
v 0 4 1.5
v 0 5 1.5
v 0 6 1.5
v 1 2 1.5
v 1 3 1.5
v 1 4 1.5
v 1 5 1.5
v 2 2 1.5
v 2 3 1.5
v 2 4 1.5
v 2 5 1.5
v 2 6 1.5
v -2 2 -1.5
v -2 3 -1.5
v -2 4 -1.5
v -2 5 -1.5
v -2 6 -1.5
v 2 2 -1.5
v 2 3 -1.5
v 2 4 -1.5
v 2 5 -1.5
v 2 6 -1.5
v -2 2 1.5
v 0 2 1.5
v 1 2 1.5
v 2 2 1.5
v -2 2 0.5
v -1 2 0.5
v 0 2 0.5
v 1 2 0.5
v 2 2 0.5
v -2 2 -0.5
v -1 2 -0.5
v 1 2 -0.5
v 2 2 -0.5
v -2 2 -1.5
v 2 2 -1.5
v -2 6 1.5
v 0 6 1.5
v 2 6 1.5
v -2 6 0.5
v 0 6 0.5
v -2 6 -1.5
v 2 6 -1.5

# faces
f 5/2/1 2/2/1 1/2/1
f 6/3/1 3/3/1 2/3/1
f 6/2/1 2/2/1 5/2/1
f 7/2/1 4/2/1 3/2/1
f 7/3/1 3/3/1 6/3/1
f 8/2/1 4/2/1 7/2/1
f 9/6/1 6/6/1 5/6/1
f 10/3/1 7/3/1 6/3/1
f 10/6/1 6/6/1 9/6/1
f 11/5/1 8/5/1 7/5/1
f 11/3/1 7/3/1 10/3/1
f 12/5/1 8/5/1 11/5/1
f 13/2/1 10/2/1 9/2/1
f 14/3/1 11/3/1 10/3/1
f 14/2/1 10/2/1 13/2/1
f 15/2/1 12/2/1 11/2/1
f 15/3/1 11/3/1 14/3/1
f 16/2/1 12/2/1 15/2/1
f 17/4/1 14/4/1 13/4/1
f 18/3/1 15/3/1 14/3/1
f 18/4/1 14/4/1 17/4/1
f 18/3/1 16/3/1 15/3/1
f 19/3/1 16/3/1 18/3/1
f 20/2/2 21/2/2 24/2/2
f 21/3/2 22/3/2 25/3/2
f 24/2/2 21/2/2 25/2/2
f 22/2/2 23/2/2 26/2/2
f 25/3/2 22/3/2 26/3/2
f 26/2/2 23/2/2 27/2/2
f 24/5/2 25/5/2 28/5/2
f 25/3/2 26/3/2 29/3/2
f 28/5/2 25/5/2 29/5/2
f 26/5/2 27/5/2 30/5/2
f 29/3/2 26/3/2 30/3/2
f 30/5/2 27/5/2 31/5/2
f 28/1/2 29/1/2 32/1/2
f 29/3/2 30/3/2 33/3/2
f 32/1/2 29/1/2 33/1/2
f 30/2/2 31/2/2 34/2/2
f 33/3/2 30/3/2 34/3/2
f 34/2/2 31/2/2 35/2/2
f 32/3/2 33/3/2 36/3/2
f 33/3/2 34/3/2 36/3/2
f 34/3/2 35/3/2 36/3/2
f 36/3/2 35/3/2 37/3/2
f 43/2/3 39/2/3 38/2/3
f 44/6/3 40/6/3 39/6/3
f 44/2/3 39/2/3 43/2/3
f 45/2/3 41/2/3 40/2/3
f 45/6/3 40/6/3 44/6/3
f 46/4/3 42/4/3 41/4/3
f 46/2/3 41/2/3 45/2/3
f 47/4/3 42/4/3 46/4/3
f 48/1/3 45/1/3 44/1/3
f 48/1/3 44/1/3 43/1/3
f 49/1/3 45/1/3 48/1/3
f 50/2/3 46/2/3 45/2/3
f 50/1/3 45/1/3 49/1/3
f 51/3/3 47/3/3 46/3/3
f 51/2/3 46/2/3 50/2/3
f 52/2/3 49/2/3 48/2/3
f 53/5/3 50/5/3 49/5/3
f 53/2/3 49/2/3 52/2/3
f 54/1/3 51/1/3 50/1/3
f 54/5/3 50/5/3 53/5/3
f 55/3/3 47/3/3 51/3/3
f 55/1/3 51/1/3 54/1/3
f 56/3/3 47/3/3 55/3/3
f 57/2/4 58/2/4 62/2/4
f 58/5/4 59/5/4 63/5/4
f 62/2/4 58/2/4 63/2/4
f 59/2/4 60/2/4 64/2/4
f 63/5/4 59/5/4 64/5/4
f 60/3/4 61/3/4 65/3/4
f 64/2/4 60/2/4 65/2/4
f 65/3/4 61/3/4 66/3/4
f 71/2/5 68/2/5 67/2/5
f 72/2/5 68/2/5 71/2/5
f 73/1/5 69/1/5 68/1/5
f 73/2/5 68/2/5 72/2/5
f 74/2/5 70/2/5 69/2/5
f 74/1/5 69/1/5 73/1/5
f 75/2/5 70/2/5 74/2/5
f 76/3/5 72/3/5 71/3/5
f 77/2/5 73/2/5 72/2/5
f 77/3/5 72/3/5 76/3/5
f 77/2/5 74/2/5 73/2/5
f 78/3/5 75/3/5 74/3/5
f 78/2/5 74/2/5 77/2/5
f 79/3/5 75/3/5 78/3/5
f 80/2/5 77/2/5 76/2/5
f 80/2/5 78/2/5 77/2/5
f 80/2/5 79/2/5 78/2/5
f 81/2/5 79/2/5 80/2/5
f 82/4/6 83/4/6 85/4/6
f 83/3/6 84/3/6 86/3/6
f 85/4/6 83/4/6 86/4/6
f 85/3/6 86/3/6 87/3/6
f 86/3/6 84/3/6 88/3/6
f 87/3/6 86/3/6 88/3/6
