# MagicaVoxel @ Ephtracy

# material
mtllib chr_old.mtl
usemtl palette

# normals
vn -1 0 0
vn 1 0 0
vn 0 0 1
vn 0 0 -1
vn 0 -1 0
vn 0 1 0

# texcoords
vt 0.00195313 0.5
vt 0.0332031 0.5
vt 0.0605469 0.5
vt 0.142578 0.5
vt 0.310547 0.5
vt 0.365234 0.5
vt 0.521484 0.5
vt 0.533203 0.5
vt 0.611328 0.5
vt 0.634766 0.5
vt 0.646484 0.5
vt 0.958984 0.5
vt 0.978516 0.5
vt 0.982422 0.5
vt 0.986328 0.5
vt 0.994141 0.5

# verts
v -4 4 2.5
v -4 4 1.5
v -4 5 2.5
v -4 5 1.5
v -4 5 -0.5
v -4 6 1.5
v -4 6 -0.5
v -4 9 3.5
v -4 9 2.5
v -4 10 3.5
v -4 10 2.5
v -3 1 2.5
v -3 1 -2.5
v -3 4 3.5
v -3 4 2.5
v -3 4 1.5
v -3 5 3.5
v -3 5 2.5
v -3 5 1.5
v -3 5 -0.5
v -3 6 1.5
v -3 6 -0.5
v -3 7 2.5
v -3 7 -2.5
v -3 9 2.5
v -3 10 2.5
v -3 12 2.5
v -3 12 -2.5
v -2 0 3.5
v -2 0 2.5
v -2 0 0.5
v -2 0 -0.5
v -2 1 3.5
v -2 1 2.5
v -2 1 0.5
v -2 1 -0.5
v -2 3 3.5
v -2 3 2.5
v -2 4 3.5
v -2 4 2.5
v -2 5 3.5
v -2 5 2.5
v -2 7 3.5
v -2 7 2.5
v -2 12 1.5
v -2 12 -1.5
v -2 13 1.5
v -2 13 -1.5
v -1 7 3.5
v -1 7 2.5
v -1 8 3.5
v -1 8 2.5
v 1 0 0.5
v 1 0 -0.5
v 1 1 0.5
v 1 1 -0.5
v 1 4 -2.5
v 1 4 -3.5
v 1 5 -2.5
v 1 5 -3.5
v 1 9 3.5
v 1 9 2.5
v 1 10 3.5
v 1 10 2.5
v -1 0 3.5
v -1 0 2.5
v -1 0 0.5
v -1 0 -0.5
v -1 1 3.5
v -1 1 2.5
v -1 1 0.5
v -1 1 -0.5
v -1 3 3.5
v -1 3 2.5
v -1 4 3.5
v -1 4 2.5
v -1 9 3.5
v -1 9 2.5
v -1 10 3.5
v -1 10 2.5
v 1 4 3.5
v 1 4 2.5
v 1 5 3.5
v 1 5 2.5
v 1 7 3.5
v 1 7 2.5
v 1 8 3.5
v 1 8 2.5
v 2 0 0.5
v 2 0 -0.5
v 2 1 0.5
v 2 1 -0.5
v 2 5 3.5
v 2 5 2.5
v 2 6 3.5
v 2 6 2.5
v 2 7 3.5
v 2 7 2.5
v 2 12 1.5
v 2 12 -1.5
v 2 13 1.5
v 2 13 -1.5
v 3 1 2.5
v 3 1 -1.5
v 3 1 -2.5
v 3 4 -1.5
v 3 4 -2.5
v 3 4 -3.5
v 3 5 0.5
v 3 5 -1.5
v 3 5 -2.5
v 3 5 -3.5
v 3 6 0.5
v 3 6 -1.5
v 3 7 2.5
v 3 7 -1.5
v 3 7 -2.5
v 3 9 2.5
v 3 10 2.5
v 3 11 2.5
v 3 11 1.5
v 3 12 2.5
v 3 12 1.5
v 3 12 -2.5
v 4 4 -1.5
v 4 4 -2.5
v 4 5 0.5
v 4 5 -1.5
v 4 5 -2.5
v 4 6 0.5
v 4 6 -1.5
v 4 9 3.5
v 4 9 2.5
v 4 10 3.5
v 4 10 2.5
v -4 9 3.5
v -4 10 3.5
v -3 4 3.5
v -3 5 3.5
v -2 0 3.5
v -2 1 3.5
v -2 3 3.5
v -2 4 3.5
v -2 5 3.5
v -2 7 3.5
v -2 9 3.5
v -2 10 3.5
v -1 0 3.5
v -1 1 3.5
v -1 3 3.5
v -1 4 3.5
v -1 5 3.5
v -1 7 3.5
v -1 8 3.5
v -1 9 3.5
v -1 10 3.5
v 1 4 3.5
v 1 5 3.5
v 1 6 3.5
v 1 7 3.5
v 1 8 3.5
v 1 9 3.5
v 1 10 3.5
v 2 5 3.5
v 2 6 3.5
v 2 7 3.5
v 2 9 3.5
v 2 10 3.5
v 4 9 3.5
v 4 10 3.5
v -4 4 2.5
v -4 5 2.5
v -3 1 2.5
v -3 4 2.5
v -3 5 2.5
v -3 7 2.5
v -3 9 2.5
v -3 10 2.5
v -3 12 2.5
v -2 1 2.5
v -2 3 2.5
v -2 4 2.5
v -2 5 2.5
v -2 7 2.5
v -2 8 2.5
v -2 9 2.5
v -2 10 2.5
v -2 11 2.5
v -2 12 2.5
v -1 1 2.5
v -1 3 2.5
v -1 4 2.5
v -1 7 2.5
v -1 8 2.5
v -1 9 2.5
v -1 10 2.5
v 0 1 2.5
v 0 3 2.5
v 1 3 2.5
v 1 4 2.5
v 1 5 2.5
v 1 7 2.5
v 1 8 2.5
v 1 9 2.5
v 1 10 2.5
v 1 11 2.5
v 1 12 2.5
v 2 5 2.5
v 2 6 2.5
v 2 7 2.5
v 2 8 2.5
v 2 9 2.5
v 2 10 2.5
v 2 11 2.5
v 2 12 2.5
v 3 1 2.5
v 3 7 2.5
v 3 9 2.5
v 3 10 2.5
v 3 11 2.5
v 3 12 2.5
v -4 5 1.5
v -4 6 1.5
v -3 5 1.5
v -3 6 1.5
v -2 12 1.5
v -2 13 1.5
v -1 12 1.5
v -1 13 1.5
v 1 12 1.5
v 2 12 1.5
v 2 13 1.5
v -2 0 0.5
v -2 1 0.5
v -1 0 0.5
v -1 1 0.5
v 1 0 0.5
v 1 1 0.5
v 2 0 0.5
v 2 1 0.5
v 3 5 0.5
v 3 6 0.5
v 4 5 0.5
v 4 6 0.5
v 3 4 -1.5
v 3 5 -1.5
v 4 4 -1.5
v 4 5 -1.5
v -4 9 2.5
v -4 10 2.5
v -3 9 2.5
v -3 10 2.5
v -2 0 2.5
v -2 1 2.5
v -1 0 2.5
v -1 1 2.5
v 3 9 2.5
v 3 10 2.5
v 4 9 2.5
v 4 10 2.5
v -4 4 1.5
v -4 5 1.5
v -3 4 1.5
v -3 5 1.5
v -4 5 -0.5
v -4 6 -0.5
v -3 5 -0.5
v -3 6 -0.5
v -2 0 -0.5
v -2 1 -0.5
v -1 0 -0.5
v -1 1 -0.5
v 1 0 -0.5
v 1 1 -0.5
v 2 0 -0.5
v 2 1 -0.5
v -2 12 -1.5
v -2 13 -1.5
v -1 12 -1.5
v -1 13 -1.5
v 2 12 -1.5
v 2 13 -1.5
v 3 5 -1.5
v 3 6 -1.5
v 4 5 -1.5
v 4 6 -1.5
v -3 1 -2.5
v -3 7 -2.5
v -3 12 -2.5
v -2 7 -2.5
v -2 12 -2.5
v 1 4 -2.5
v 1 5 -2.5
v 3 1 -2.5
v 3 4 -2.5
v 3 5 -2.5
v 3 7 -2.5
v 3 12 -2.5
v 4 4 -2.5
v 4 5 -2.5
v 1 4 -3.5
v 1 5 -3.5
v 3 4 -3.5
v 3 5 -3.5
v -2 0 3.5
v -1 0 3.5
v -2 0 2.5
v -1 0 2.5
v -2 0 0.5
v -1 0 0.5
v 1 0 0.5
v 2 0 0.5
v -2 0 -0.5
v -1 0 -0.5
v 1 0 -0.5
v 2 0 -0.5
v -3 1 2.5
v -2 1 2.5
v -1 1 2.5
v 0 1 2.5
v 3 1 2.5
v -2 1 1.5
v -1 1 1.5
v 0 1 1.5
v -2 1 0.5
v -1 1 0.5
v 1 1 0.5
v 2 1 0.5
v -2 1 -0.5
v -1 1 -0.5
v 1 1 -0.5
v 2 1 -0.5
v -2 1 -1.5
v 3 1 -1.5
v -3 1 -2.5
v 3 1 -2.5
v -3 4 3.5
v -2 4 3.5
v -1 4 3.5
v 1 4 3.5
v -4 4 2.5
v -3 4 2.5
v -2 4 2.5
v -1 4 2.5
v 1 4 2.5
v -4 4 1.5
v -3 4 1.5
v 3 4 -1.5
v 4 4 -1.5
v 1 4 -2.5
v 3 4 -2.5
v 4 4 -2.5
v 1 4 -3.5
v 3 4 -3.5
v 1 5 3.5
v 2 5 3.5
v 1 5 2.5
v 2 5 2.5
v -4 5 1.5
v -3 5 1.5
v 3 5 0.5
v 4 5 0.5
v -4 5 -0.5
v -3 5 -0.5
v 3 5 -1.5
v 4 5 -1.5
v -4 9 3.5
v -2 9 3.5
v -1 9 3.5
v 1 9 3.5
v 2 9 3.5
v 4 9 3.5
v -4 9 2.5
v -3 9 2.5
v -2 9 2.5
v -1 9 2.5
v 1 9 2.5
v 2 9 2.5
v 3 9 2.5
v 4 9 2.5
v -3 5 3.5
v -2 5 3.5
v -4 5 2.5
v -3 5 2.5
v -2 5 2.5
v -4 5 1.5
v -3 5 1.5
v 3 5 -1.5
v 4 5 -1.5
v 1 5 -2.5
v 3 5 -2.5
v 4 5 -2.5
v 1 5 -3.5
v 3 5 -3.5
v -4 6 1.5
v -3 6 1.5
v 3 6 0.5
v 4 6 0.5
v -4 6 -0.5
v -3 6 -0.5
v 3 6 -1.5
v 4 6 -1.5
v -2 7 3.5
v -1 7 3.5
v 1 7 3.5
v 2 7 3.5
v -2 7 2.5
v -1 7 2.5
v 1 7 2.5
v 2 7 2.5
v -1 8 3.5
v 1 8 3.5
v -1 8 2.5
v 1 8 2.5
v -4 10 3.5
v -2 10 3.5
v -1 10 3.5
v 1 10 3.5
v 2 10 3.5
v 4 10 3.5
v -4 10 2.5
v -3 10 2.5
v -2 10 2.5
v -1 10 2.5
v 1 10 2.5
v 2 10 2.5
v 3 10 2.5
v 4 10 2.5
v -3 12 2.5
v -2 12 2.5
v 1 12 2.5
v 2 12 2.5
v 3 12 2.5
v -2 12 1.5
v -1 12 1.5
v 1 12 1.5
v 2 12 1.5
v 3 12 1.5
v -2 12 -1.5
v -1 12 -1.5
v 2 12 -1.5
v -3 12 -2.5
v -2 12 -2.5
v 3 12 -2.5
v -2 13 1.5
v -1 13 1.5
v 2 13 1.5
v -2 13 -1.5
v -1 13 -1.5
v 2 13 -1.5

# faces
f 3/5/1 2/5/1 1/5/1
f 4/5/1 2/5/1 3/5/1
f 6/5/1 5/5/1 4/5/1
f 7/5/1 5/5/1 6/5/1
f 10/14/1 9/14/1 8/14/1
f 11/14/1 9/14/1 10/14/1
f 15/5/1 13/5/1 12/5/1
f 16/5/1 13/5/1 15/5/1
f 17/3/1 15/3/1 14/3/1
f 18/3/1 15/3/1 17/3/1
f 19/5/1 13/5/1 16/5/1
f 20/5/1 13/5/1 19/5/1
f 21/5/1 19/5/1 18/5/1
f 22/5/1 13/5/1 20/5/1
f 23/5/1 21/5/1 18/5/1
f 23/5/1 22/5/1 21/5/1
f 24/5/1 13/5/1 22/5/1
f 24/5/1 22/5/1 23/5/1
f 25/3/1 24/3/1 23/3/1
f 26/3/1 24/3/1 25/3/1
f 27/3/1 24/3/1 26/3/1
f 28/3/1 24/3/1 27/3/1
f 33/8/1 30/8/1 29/8/1
f 34/8/1 30/8/1 33/8/1
f 35/11/1 32/11/1 31/11/1
f 36/11/1 32/11/1 35/11/1
f 37/6/1 34/6/1 33/6/1
f 38/6/1 34/6/1 37/6/1
f 39/8/1 38/8/1 37/8/1
f 40/8/1 38/8/1 39/8/1
f 43/13/1 42/13/1 41/13/1
f 44/13/1 42/13/1 43/13/1
f 47/3/1 46/3/1 45/3/1
f 48/3/1 46/3/1 47/3/1
f 51/13/1 50/13/1 49/13/1
f 52/13/1 50/13/1 51/13/1
f 55/11/1 54/11/1 53/11/1
f 56/11/1 54/11/1 55/11/1
f 59/3/1 58/3/1 57/3/1
f 60/3/1 58/3/1 59/3/1
f 63/14/1 62/14/1 61/14/1
f 64/14/1 62/14/1 63/14/1
f 65/8/2 66/8/2 69/8/2
f 69/8/2 66/8/2 70/8/2
f 67/11/2 68/11/2 71/11/2
f 71/11/2 68/11/2 72/11/2
f 69/6/2 70/6/2 73/6/2
f 73/6/2 70/6/2 74/6/2
f 73/8/2 74/8/2 75/8/2
f 75/8/2 74/8/2 76/8/2
f 77/13/2 78/13/2 79/13/2
f 79/13/2 78/13/2 80/13/2
f 81/15/2 82/15/2 83/15/2
f 83/15/2 82/15/2 84/15/2
f 85/13/2 86/13/2 87/13/2
f 87/13/2 86/13/2 88/13/2
f 89/11/2 90/11/2 91/11/2
f 91/11/2 90/11/2 92/11/2
f 93/15/2 94/15/2 95/15/2
f 95/15/2 94/15/2 96/15/2
f 95/13/2 96/13/2 97/13/2
f 97/13/2 96/13/2 98/13/2
f 99/2/2 100/2/2 101/2/2
f 101/2/2 100/2/2 102/2/2
f 103/4/2 104/4/2 106/4/2
f 104/5/2 105/5/2 106/5/2
f 106/5/2 105/5/2 107/5/2
f 103/4/2 106/4/2 109/4/2
f 109/4/2 106/4/2 110/4/2
f 107/3/2 108/3/2 111/3/2
f 111/3/2 108/3/2 112/3/2
f 103/4/2 109/4/2 113/4/2
f 110/5/2 111/5/2 114/5/2
f 103/4/2 113/4/2 115/4/2
f 113/4/2 114/4/2 115/4/2
f 114/5/2 111/5/2 116/5/2
f 115/4/2 114/4/2 116/4/2
f 116/5/2 111/5/2 117/5/2
f 115/2/2 116/2/2 118/2/2
f 116/2/2 117/2/2 118/2/2
f 118/2/2 117/2/2 119/2/2
f 119/2/2 117/2/2 120/2/2
f 120/2/2 117/2/2 121/2/2
f 120/12/2 121/12/2 122/12/2
f 121/2/2 117/2/2 123/2/2
f 122/12/2 121/12/2 123/12/2
f 123/2/2 117/2/2 124/2/2
f 125/5/2 126/5/2 128/5/2
f 128/5/2 126/5/2 129/5/2
f 127/5/2 128/5/2 130/5/2
f 130/5/2 128/5/2 131/5/2
f 132/13/2 133/13/2 134/13/2
f 134/13/2 133/13/2 135/13/2
f 143/3/3 139/3/3 138/3/3
f 144/3/3 139/3/3 143/3/3
f 146/14/3 137/14/3 136/14/3
f 147/14/3 137/14/3 146/14/3
f 148/8/3 141/8/3 140/8/3
f 149/6/3 142/6/3 141/6/3
f 149/8/3 141/8/3 148/8/3
f 150/8/3 143/8/3 142/8/3
f 150/6/3 142/6/3 149/6/3
f 151/3/3 144/3/3 143/3/3
f 151/8/3 143/8/3 150/8/3
f 152/13/3 145/13/3 144/13/3
f 152/3/3 144/3/3 151/3/3
f 153/13/3 145/13/3 152/13/3
f 155/13/3 147/13/3 146/13/3
f 156/13/3 147/13/3 155/13/3
f 157/15/3 152/15/3 151/15/3
f 158/13/3 153/13/3 152/13/3
f 158/15/3 152/15/3 157/15/3
f 158/13/3 154/13/3 153/13/3
f 159/13/3 154/13/3 158/13/3
f 160/13/3 154/13/3 159/13/3
f 161/13/3 154/13/3 160/13/3
f 164/15/3 159/15/3 158/15/3
f 165/13/3 160/13/3 159/13/3
f 165/15/3 159/15/3 164/15/3
f 166/13/3 160/13/3 165/13/3
f 167/14/3 163/14/3 162/14/3
f 168/14/3 163/14/3 167/14/3
f 169/13/3 168/13/3 167/13/3
f 170/13/3 168/13/3 169/13/3
f 174/5/3 172/5/3 171/5/3
f 175/5/3 172/5/3 174/5/3
f 180/5/3 174/5/3 173/5/3
f 181/5/3 174/5/3 180/5/3
f 182/5/3 174/5/3 181/5/3
f 183/5/3 176/5/3 175/5/3
f 184/3/3 177/3/3 176/3/3
f 184/5/3 176/5/3 183/5/3
f 185/3/3 177/3/3 184/3/3
f 186/3/3 177/3/3 185/3/3
f 187/3/3 179/3/3 178/3/3
f 188/3/3 179/3/3 187/3/3
f 189/3/3 179/3/3 188/3/3
f 193/3/3 185/3/3 184/3/3
f 194/16/3 186/16/3 185/16/3
f 194/3/3 185/3/3 193/3/3
f 195/16/3 186/16/3 194/16/3
f 196/2/3 188/2/3 187/2/3
f 197/5/3 192/5/3 191/5/3
f 197/5/3 191/5/3 190/5/3
f 198/5/3 192/5/3 197/5/3
f 199/4/3 198/4/3 197/4/3
f 199/5/3 192/5/3 198/5/3
f 200/5/3 192/5/3 199/5/3
f 203/2/3 195/2/3 194/2/3
f 203/2/3 196/2/3 195/2/3
f 204/2/3 196/2/3 203/2/3
f 205/2/3 188/2/3 196/2/3
f 205/2/3 196/2/3 204/2/3
f 206/12/3 189/12/3 188/12/3
f 206/2/3 188/2/3 205/2/3
f 207/12/3 189/12/3 206/12/3
f 208/4/3 201/4/3 200/4/3
f 208/4/3 200/4/3 199/4/3
f 210/2/3 203/2/3 202/2/3
f 211/16/3 204/16/3 203/16/3
f 211/2/3 203/2/3 210/2/3
f 212/16/3 204/16/3 211/16/3
f 213/2/3 206/2/3 205/2/3
f 214/1/3 207/1/3 206/1/3
f 214/2/3 206/2/3 213/2/3
f 215/1/3 207/1/3 214/1/3
f 216/4/3 210/4/3 209/4/3
f 216/4/3 199/4/3 197/4/3
f 216/4/3 209/4/3 208/4/3
f 216/4/3 208/4/3 199/4/3
f 217/2/3 212/2/3 211/2/3
f 217/4/3 210/4/3 216/4/3
f 217/2/3 211/2/3 210/2/3
f 218/2/3 212/2/3 217/2/3
f 219/2/3 214/2/3 213/2/3
f 220/12/3 215/12/3 214/12/3
f 220/2/3 214/2/3 219/2/3
f 221/12/3 215/12/3 220/12/3
f 224/5/3 223/5/3 222/5/3
f 225/5/3 223/5/3 224/5/3
f 228/3/3 227/3/3 226/3/3
f 229/3/3 227/3/3 228/3/3
f 230/2/3 229/2/3 228/2/3
f 231/2/3 229/2/3 230/2/3
f 232/2/3 229/2/3 231/2/3
f 235/11/3 234/11/3 233/11/3
f 236/11/3 234/11/3 235/11/3
f 239/11/3 238/11/3 237/11/3
f 240/11/3 238/11/3 239/11/3
f 243/5/3 242/5/3 241/5/3
f 244/5/3 242/5/3 243/5/3
f 247/5/3 246/5/3 245/5/3
f 248/5/3 246/5/3 247/5/3
f 249/14/4 250/14/4 251/14/4
f 251/14/4 250/14/4 252/14/4
f 253/8/4 254/8/4 255/8/4
f 255/8/4 254/8/4 256/8/4
f 257/13/4 258/13/4 259/13/4
f 259/13/4 258/13/4 260/13/4
f 261/5/4 262/5/4 263/5/4
f 263/5/4 262/5/4 264/5/4
f 265/5/4 266/5/4 267/5/4
f 267/5/4 266/5/4 268/5/4
f 269/11/4 270/11/4 271/11/4
f 271/11/4 270/11/4 272/11/4
f 273/11/4 274/11/4 275/11/4
f 275/11/4 274/11/4 276/11/4
f 277/3/4 278/3/4 279/3/4
f 279/3/4 278/3/4 280/3/4
f 279/2/4 280/2/4 281/2/4
f 281/2/4 280/2/4 282/2/4
f 283/5/4 284/5/4 285/5/4
f 285/5/4 284/5/4 286/5/4
f 287/5/4 288/5/4 290/5/4
f 288/3/4 289/3/4 290/3/4
f 290/3/4 289/3/4 291/3/4
f 287/5/4 290/5/4 292/5/4
f 292/5/4 290/5/4 293/5/4
f 287/5/4 292/5/4 294/5/4
f 294/5/4 292/5/4 295/5/4
f 293/5/4 290/5/4 296/5/4
f 290/2/4 291/2/4 297/2/4
f 296/5/4 290/5/4 297/5/4
f 297/2/4 291/2/4 298/2/4
f 295/5/4 296/5/4 299/5/4
f 299/5/4 296/5/4 300/5/4
f 301/3/4 302/3/4 303/3/4
f 303/3/4 302/3/4 304/3/4
f 307/8/5 306/8/5 305/8/5
f 308/8/5 306/8/5 307/8/5
f 313/11/5 310/11/5 309/11/5
f 314/11/5 310/11/5 313/11/5
f 315/11/5 312/11/5 311/11/5
f 316/11/5 312/11/5 315/11/5
f 322/5/5 318/5/5 317/5/5
f 322/11/5 319/11/5 318/11/5
f 323/5/5 320/5/5 319/5/5
f 323/11/5 319/11/5 322/11/5
f 324/4/5 321/4/5 320/4/5
f 324/5/5 320/5/5 323/5/5
f 325/4/5 323/4/5 322/4/5
f 325/5/5 322/5/5 317/5/5
f 325/4/5 324/4/5 323/4/5
f 326/4/5 324/4/5 325/4/5
f 327/4/5 321/4/5 324/4/5
f 327/4/5 324/4/5 326/4/5
f 328/4/5 321/4/5 327/4/5
f 329/5/5 325/5/5 317/5/5
f 330/4/5 327/4/5 326/4/5
f 331/4/5 327/4/5 330/4/5
f 332/4/5 321/4/5 328/4/5
f 333/4/5 331/4/5 330/4/5
f 333/4/5 332/4/5 331/4/5
f 333/5/5 329/5/5 317/5/5
f 333/4/5 330/4/5 329/4/5
f 334/4/5 321/4/5 332/4/5
f 334/4/5 332/4/5 333/4/5
f 335/5/5 333/5/5 317/5/5
f 335/5/5 334/5/5 333/5/5
f 336/5/5 334/5/5 335/5/5
f 342/3/5 338/3/5 337/3/5
f 343/3/5 338/3/5 342/3/5
f 344/15/5 340/15/5 339/15/5
f 345/15/5 340/15/5 344/15/5
f 346/5/5 342/5/5 341/5/5
f 347/5/5 342/5/5 346/5/5
f 351/5/5 349/5/5 348/5/5
f 352/5/5 349/5/5 351/5/5
f 353/3/5 351/3/5 350/3/5
f 354/3/5 351/3/5 353/3/5
f 357/15/5 356/15/5 355/15/5
f 358/15/5 356/15/5 357/15/5
f 363/5/5 360/5/5 359/5/5
f 364/5/5 360/5/5 363/5/5
f 365/5/5 362/5/5 361/5/5
f 366/5/5 362/5/5 365/5/5
f 373/14/5 368/14/5 367/14/5
f 374/14/5 368/14/5 373/14/5
f 375/13/5 369/13/5 368/13/5
f 375/14/5 368/14/5 374/14/5
f 376/13/5 369/13/5 375/13/5
f 377/14/5 371/14/5 370/14/5
f 378/13/5 372/13/5 371/13/5
f 378/14/5 371/14/5 377/14/5
f 379/13/5 372/13/5 378/13/5
f 380/13/5 372/13/5 379/13/5
f 381/3/6 382/3/6 384/3/6
f 384/3/6 382/3/6 385/3/6
f 383/5/6 384/5/6 386/5/6
f 386/5/6 384/5/6 387/5/6
f 388/5/6 389/5/6 391/5/6
f 391/5/6 389/5/6 392/5/6
f 390/3/6 391/3/6 393/3/6
f 393/3/6 391/3/6 394/3/6
f 395/5/6 396/5/6 399/5/6
f 399/5/6 396/5/6 400/5/6
f 397/5/6 398/5/6 401/5/6
f 401/5/6 398/5/6 402/5/6
f 403/13/6 404/13/6 407/13/6
f 407/13/6 404/13/6 408/13/6
f 405/13/6 406/13/6 409/13/6
f 409/13/6 406/13/6 410/13/6
f 411/13/6 412/13/6 413/13/6
f 413/13/6 412/13/6 414/13/6
f 415/14/6 416/14/6 421/14/6
f 421/14/6 416/14/6 422/14/6
f 416/13/6 417/13/6 423/13/6
f 422/14/6 416/14/6 423/14/6
f 423/13/6 417/13/6 424/13/6
f 418/14/6 419/14/6 425/14/6
f 419/13/6 420/13/6 426/13/6
f 425/14/6 419/14/6 426/14/6
f 426/13/6 420/13/6 427/13/6
f 427/13/6 420/13/6 428/13/6
f 429/3/6 430/3/6 434/3/6
f 430/12/6 431/12/6 434/12/6
f 434/12/6 431/12/6 435/12/6
f 431/1/6 432/1/6 436/1/6
f 435/12/6 431/12/6 436/12/6
f 432/12/6 433/12/6 437/12/6
f 436/1/6 432/1/6 437/1/6
f 437/12/6 433/12/6 438/12/6
f 429/3/6 434/3/6 439/3/6
f 437/2/6 438/2/6 441/2/6
f 429/3/6 439/3/6 442/3/6
f 439/2/6 440/2/6 443/2/6
f 442/3/6 439/3/6 443/3/6
f 440/2/6 441/2/6 443/2/6
f 441/2/6 438/2/6 444/2/6
f 443/2/6 441/2/6 444/2/6
f 445/3/6 446/3/6 448/3/6
f 446/2/6 447/2/6 449/2/6
f 448/3/6 446/3/6 449/3/6
f 449/2/6 447/2/6 450/2/6
