# MagicaVoxel @ Ephtracy

# material
mtllib enemyBody.mtl
usemtl palette

# normals
vn -1 0 0
vn 1 0 0
vn 0 0 1
vn 0 0 -1
vn 0 -1 0
vn 0 1 0

# texcoords
vt 0.908203 0.5
vt 0.939453 0.5
vt 0.970703 0.5
vt 0.974609 0.5
vt 0.994141 0.5

# verts
v -10 12 -0
v -10 12 -2
v -10 13 1
v -10 13 -0
v -10 15 1
v -10 15 -0
v -10 16 -2
v -10 16 -3
v -10 17 -0
v -10 17 -1
v -10 17 -3
v -10 17 -4
v -10 18 -1
v -10 18 -3
v -10 19 -3
v -10 19 -4
v -9 10 1
v -9 10 -2
v -9 11 2
v -9 11 1
v -9 11 -2
v -9 11 -3
v -9 12 2
v -9 12 1
v -9 12 -0
v -9 12 -2
v -9 13 1
v -9 13 -0
v -9 13 -2
v -9 13 -3
v -9 15 1
v -9 15 -0
v -9 16 1
v -9 16 -0
v -8 8 2
v -8 8 -2
v -8 9 -2
v -8 9 -3
v -8 10 1
v -8 10 -2
v -8 11 2
v -8 11 1
v -8 11 -2
v -8 11 -3
v -8 12 2
v -8 12 1
v -8 13 2
v -8 13 1
v -8 13 -2
v -8 13 -3
v -8 14 -2
v -8 14 -3
v -7 7 2
v -7 7 -3
v -7 8 2
v -7 8 -2
v -7 9 -2
v -7 9 -3
v -6 6 2
v -6 6 -3
v -6 7 2
v -6 7 -3
v -5 5 2
v -5 5 -3
v -5 6 2
v -5 6 -3
v -4 5 3
v -4 5 2
v -4 10 3
v -4 10 2
v -3 3 3
v -3 3 2
v -3 4 1
v -3 4 -2
v -3 5 3
v -3 5 2
v -3 5 1
v -3 5 -2
v -3 5 -3
v -3 5 -4
v -3 9 -3
v -3 9 -4
v -3 12 2
v -3 12 -3
v -3 13 2
v -3 13 -3
v -2 9 -3
v -2 9 -4
v -2 10 -3
v -2 10 -4
v -2 13 1
v -2 13 -2
v -2 14 1
v -2 14 -2
v -1 13 2
v -1 13 1
v -1 13 -2
v -1 13 -3
v -1 14 2
v -1 14 1
v -1 14 -2
v -1 14 -3
v -1 15 1
v -1 15 -2
v 0 3 -3
v 0 3 -4
v 0 4 -3
v 0 4 -4
v 0 14 2
v 0 14 1
v 0 14 -2
v 0 14 -3
v 0 15 2
v 0 15 1
v 0 15 -2
v 0 15 -3
v 1 4 -3
v 1 4 -4
v 1 5 -3
v 1 5 -4
v 1 15 -0
v 1 15 -1
v 1 16 2
v 1 16 -0
v 1 16 -1
v 1 16 -3
v 1 23 2
v 1 23 -3
v 2 15 1
v 2 15 -0
v 2 15 -1
v 2 15 -2
v 2 16 1
v 2 16 -0
v 2 16 -1
v 2 16 -2
v 2 23 2
v 2 23 -3
v 2 24 2
v 2 24 -3
v -9 16 -2
v -9 16 -3
v -9 17 -1
v -9 17 -2
v -9 17 -3
v -9 17 -4
v -9 18 -1
v -9 18 -3
v -9 19 -3
v -9 19 -4
v -8 15 1
v -8 15 -0
v -8 15 -1
v -8 15 -2
v -8 16 1
v -8 16 -0
v -8 16 -1
v -8 17 -0
v -8 17 -2
v -7 13 -2
v -7 13 -3
v -7 14 1
v -7 14 -2
v -7 14 -3
v -7 15 1
v -7 15 -0
v -7 15 -1
v -7 15 -2
v -7 16 -0
v -7 16 -1
v -6 12 2
v -6 12 1
v -6 12 -1
v -6 12 -3
v -6 13 2
v -6 13 1
v -6 13 -1
v -6 13 -2
v -6 13 -3
v -6 14 1
v -6 14 -2
v -5 12 1
v -5 12 -1
v -5 13 1
v -5 13 -1
v 1 3 3
v 1 3 2
v 1 5 3
v 1 5 2
v 2 4 1
v 2 4 -2
v 2 5 3
v 2 5 2
v 2 5 1
v 2 5 -2
v 2 10 3
v 2 10 2
v 3 8 -3
v 3 8 -4
v 3 10 -3
v 3 10 -4
v 4 3 -3
v 4 3 -4
v 4 4 -3
v 4 4 -4
v 5 4 -3
v 5 4 -4
v 5 5 2
v 5 5 1
v 5 5 -2
v 5 5 -3
v 5 6 2
v 5 6 1
v 5 6 -2
v 5 6 -3
v 5 8 -3
v 5 8 -4
v 5 17 -0
v 5 17 -1
v 5 18 -0
v 5 18 -1
v 6 6 2
v 6 6 1
v 6 6 -2
v 6 6 -3
v 6 7 1
v 6 7 -2
v 6 8 2
v 6 8 1
v 6 8 -2
v 6 8 -3
v 6 15 1
v 6 15 -2
v 6 16 1
v 6 16 -2
v 6 17 1
v 6 17 -0
v 6 17 -1
v 6 17 -2
v 6 18 1
v 6 18 -0
v 6 18 -1
v 6 18 -2
v 7 7 1
v 7 7 -2
v 7 8 2
v 7 8 1
v 7 8 -2
v 7 8 -3
v 7 12 1
v 7 12 -2
v 7 15 2
v 7 15 -3
v 7 17 2
v 7 17 1
v 7 17 -2
v 7 17 -3
v 7 18 2
v 7 18 1
v 7 18 -2
v 7 18 -3
v 11 16 2
v 11 16 -3
v 11 17 2
v 11 17 -3
v 11 23 2
v 11 23 -3
v 11 24 2
v 11 24 -3
v 12 18 2
v 12 18 -3
v 12 21 1
v 12 21 -0
v 12 21 -1
v 12 21 -2
v 12 22 1
v 12 22 -0
v 12 22 -1
v 12 22 -2
v 12 23 2
v 12 23 -3
v -4 5 3
v -4 10 3
v -3 3 3
v -3 5 3
v 1 3 3
v 1 5 3
v 2 5 3
v 2 10 3
v -9 11 2
v -9 12 2
v -8 8 2
v -8 11 2
v -8 12 2
v -8 13 2
v -7 7 2
v -7 8 2
v -6 6 2
v -6 7 2
v -6 12 2
v -6 13 2
v -5 5 2
v -5 6 2
v -4 5 2
v -4 10 2
v -3 12 2
v -3 13 2
v -1 13 2
v -1 14 2
v 0 14 2
v 0 15 2
v 1 16 2
v 1 23 2
v 2 5 2
v 2 10 2
v 2 23 2
v 2 24 2
v 3 22 2
v 3 23 2
v 4 21 2
v 4 22 2
v 5 5 2
v 5 6 2
v 5 21 2
v 5 22 2
v 6 6 2
v 6 8 2
v 6 22 2
v 6 23 2
v 7 8 2
v 7 15 2
v 7 17 2
v 7 18 2
v 11 16 2
v 11 17 2
v 11 23 2
v 11 24 2
v 12 18 2
v 12 23 2
v -10 13 1
v -10 15 1
v -9 10 1
v -9 11 1
v -9 12 1
v -9 13 1
v -9 15 1
v -9 16 1
v -8 10 1
v -8 11 1
v -8 12 1
v -8 13 1
v -8 15 1
v -8 16 1
v -7 14 1
v -7 15 1
v -6 12 1
v -6 13 1
v -6 14 1
v -5 12 1
v -5 13 1
v -3 4 1
v -3 5 1
v -2 13 1
v -2 14 1
v -1 4 1
v -1 5 1
v -1 13 1
v -1 14 1
v -1 15 1
v 0 14 1
v 0 15 1
v 2 4 1
v 2 5 1
v 2 15 1
v 2 16 1
v 6 7 1
v 6 8 1
v 6 15 1
v 6 16 1
v 7 7 1
v 7 8 1
v -10 12 -0
v -10 13 -0
v -10 15 -0
v -10 17 -0
v -9 12 -0
v -9 13 -0
v -9 15 -0
v -9 16 -0
v -8 15 -0
v -8 16 -0
v -8 17 -0
v -7 15 -0
v -7 16 -0
v 1 15 -0
v 1 16 -0
v 2 15 -0
v 2 16 -0
v -10 17 -1
v -10 18 -1
v -9 17 -1
v -9 18 -1
v 5 17 -1
v 5 18 -1
v 6 17 -1
v 6 18 -1
v 6 17 -2
v 6 18 -2
v 7 17 -2
v 7 18 -2
v -10 18 -3
v -10 19 -3
v -9 18 -3
v -9 19 -3
v 0 3 -3
v 0 4 -3
v 1 4 -3
v 1 5 -3
v 4 3 -3
v 4 4 -3
v 5 4 -3
v 5 5 -3
v -3 3 2
v -3 5 2
v 1 3 2
v 1 5 2
v 6 17 1
v 6 18 1
v 7 17 1
v 7 18 1
v 5 17 -0
v 5 18 -0
v 6 17 -0
v 6 18 -0
v -8 15 -1
v -8 16 -1
v -7 15 -1
v -7 16 -1
v -6 12 -1
v -6 13 -1
v -5 12 -1
v -5 13 -1
v 1 15 -1
v 1 16 -1
v 2 15 -1
v 2 16 -1
v -10 12 -2
v -10 16 -2
v -9 10 -2
v -9 11 -2
v -9 12 -2
v -9 13 -2
v -9 16 -2
v -9 17 -2
v -8 8 -2
v -8 9 -2
v -8 10 -2
v -8 11 -2
v -8 13 -2
v -8 14 -2
v -8 15 -2
v -8 17 -2
v -7 8 -2
v -7 9 -2
v -7 13 -2
v -7 14 -2
v -7 15 -2
v -6 13 -2
v -6 14 -2
v -3 4 -2
v -3 5 -2
v -2 13 -2
v -2 14 -2
v -1 4 -2
v -1 5 -2
v -1 13 -2
v -1 14 -2
v -1 15 -2
v 0 14 -2
v 0 15 -2
v 2 4 -2
v 2 5 -2
v 2 15 -2
v 2 16 -2
v 6 7 -2
v 6 8 -2
v 6 15 -2
v 6 16 -2
v 7 7 -2
v 7 8 -2
v -10 16 -3
v -10 17 -3
v -9 11 -3
v -9 13 -3
v -9 16 -3
v -9 17 -3
v -8 9 -3
v -8 11 -3
v -8 13 -3
v -8 14 -3
v -7 7 -3
v -7 9 -3
v -7 13 -3
v -7 14 -3
v -6 6 -3
v -6 7 -3
v -6 12 -3
v -6 13 -3
v -5 5 -3
v -5 6 -3
v -3 5 -3
v -3 9 -3
v -3 12 -3
v -3 13 -3
v -2 9 -3
v -2 10 -3
v -1 13 -3
v -1 14 -3
v 0 14 -3
v 0 15 -3
v 1 16 -3
v 1 23 -3
v 2 23 -3
v 2 24 -3
v 3 8 -3
v 3 10 -3
v 3 22 -3
v 3 23 -3
v 4 21 -3
v 4 22 -3
v 5 6 -3
v 5 8 -3
v 5 21 -3
v 5 22 -3
v 6 6 -3
v 6 8 -3
v 6 22 -3
v 6 23 -3
v 7 8 -3
v 7 15 -3
v 7 17 -3
v 7 18 -3
v 11 16 -3
v 11 17 -3
v 11 23 -3
v 11 24 -3
v 12 18 -3
v 12 23 -3
v -10 17 -4
v -10 19 -4
v -9 17 -4
v -9 19 -4
v -3 5 -4
v -3 9 -4
v -2 9 -4
v -2 10 -4
v 0 3 -4
v 0 4 -4
v 1 4 -4
v 1 5 -4
v 3 8 -4
v 3 10 -4
v 4 3 -4
v 4 4 -4
v 5 4 -4
v 5 8 -4
v -3 3 3
v 1 3 3
v -3 3 2
v 1 3 2
v 0 3 -3
v 4 3 -3
v 0 3 -4
v 4 3 -4
v -3 4 1
v -1 4 1
v 2 4 1
v -1 4 -0
v 0 4 -0
v -1 4 -1
v 0 4 -1
v -3 4 -2
v -1 4 -2
v 2 4 -2
v 4 4 -3
v 5 4 -3
v 4 4 -4
v 5 4 -4
v -4 5 3
v -3 5 3
v 1 5 3
v 2 5 3
v -5 5 2
v -4 5 2
v -3 5 2
v 1 5 2
v 2 5 2
v 5 5 2
v -3 5 1
v -1 5 1
v 2 5 1
v 5 5 1
v -3 5 -2
v -1 5 -2
v 2 5 -2
v 5 5 -2
v -5 5 -3
v -3 5 -3
v 1 5 -3
v 5 5 -3
v -3 5 -4
v 1 5 -4
v -6 6 2
v -5 6 2
v 5 6 2
v 6 6 2
v 5 6 1
v 6 6 1
v 5 6 -2
v 6 6 -2
v -6 6 -3
v -5 6 -3
v 5 6 -3
v 6 6 -3
v -7 7 2
v -6 7 2
v 6 7 1
v 7 7 1
v 6 7 -2
v 7 7 -2
v -7 7 -3
v -6 7 -3
v -8 8 2
v -7 8 2
v 6 8 2
v 7 8 2
v 6 8 1
v 7 8 1
v -8 8 -2
v -7 8 -2
v 6 8 -2
v 7 8 -2
v 6 8 -3
v 7 8 -3
v -8 9 -2
v -7 9 -2
v -8 9 -3
v -7 9 -3
v -9 10 1
v -8 10 1
v -9 10 -2
v -8 10 -2
v -9 11 2
v -8 11 2
v -9 11 1
v -8 11 1
v -9 11 -2
v -8 11 -2
v -9 11 -3
v -8 11 -3
v -10 12 -0
v -9 12 -0
v -10 12 -2
v -9 12 -2
v -10 13 1
v -9 13 1
v -10 13 -0
v -9 13 -0
v 1 16 2
v 11 16 2
v 2 16 1
v 6 16 1
v 1 16 -0
v 2 16 -0
v 1 16 -1
v 2 16 -1
v -10 16 -2
v -9 16 -2
v 2 16 -2
v 6 16 -2
v -10 16 -3
v -9 16 -3
v 1 16 -3
v 11 16 -3
v -10 17 -3
v -9 17 -3
v -10 17 -4
v -9 17 -4
v 7 18 2
v 12 18 2
v 6 18 1
v 7 18 1
v 5 18 -0
v 6 18 -0
v 5 18 -1
v 6 18 -1
v 6 18 -2
v 7 18 -2
v 7 18 -3
v 12 18 -3
v 0 4 -3
v 1 4 -3
v 0 4 -4
v 1 4 -4
v 3 8 -3
v 5 8 -3
v 3 8 -4
v 5 8 -4
v -3 9 -3
v -2 9 -3
v -3 9 -4
v -2 9 -4
v -4 10 3
v 2 10 3
v -4 10 2
v 2 10 2
v -2 10 -3
v 3 10 -3
v -2 10 -4
v 3 10 -4
v -9 12 2
v -8 12 2
v -6 12 2
v -3 12 2
v -9 12 1
v -8 12 1
v -6 12 1
v -5 12 1
v -6 12 -1
v -5 12 -1
v -6 12 -3
v -3 12 -3
v -8 13 2
v -6 13 2
v -3 13 2
v -1 13 2
v -8 13 1
v -6 13 1
v -5 13 1
v -2 13 1
v -1 13 1
v -6 13 -1
v -5 13 -1
v -9 13 -2
v -8 13 -2
v -7 13 -2
v -6 13 -2
v -2 13 -2
v -1 13 -2
v -9 13 -3
v -8 13 -3
v -7 13 -3
v -6 13 -3
v -3 13 -3
v -1 13 -3
v -1 14 2
v 0 14 2
v -7 14 1
v -6 14 1
v -2 14 1
v -1 14 1
v 0 14 1
v -8 14 -2
v -7 14 -2
v -6 14 -2
v -2 14 -2
v -1 14 -2
v 0 14 -2
v -8 14 -3
v -7 14 -3
v -1 14 -3
v 0 14 -3
v 0 15 2
v 7 15 2
v -10 15 1
v -9 15 1
v -8 15 1
v -7 15 1
v -1 15 1
v 0 15 1
v 2 15 1
v 6 15 1
v -10 15 -0
v -9 15 -0
v -8 15 -0
v -7 15 -0
v 1 15 -0
v 2 15 -0
v -8 15 -1
v -7 15 -1
v 1 15 -1
v 2 15 -1
v -8 15 -2
v -7 15 -2
v -1 15 -2
v 0 15 -2
v 2 15 -2
v 6 15 -2
v 0 15 -3
v 7 15 -3
v -9 16 1
v -8 16 1
v -9 16 -0
v -8 16 -0
v -7 16 -0
v -8 16 -1
v -7 16 -1
v 7 17 2
v 11 17 2
v 6 17 1
v 7 17 1
v -10 17 -0
v -8 17 -0
v 5 17 -0
v 6 17 -0
v -10 17 -1
v -9 17 -1
v 5 17 -1
v 6 17 -1
v -9 17 -2
v -8 17 -2
v 6 17 -2
v 7 17 -2
v 7 17 -3
v 11 17 -3
v -10 18 -1
v -9 18 -1
v -10 18 -3
v -9 18 -3
v -10 19 -3
v -9 19 -3
v -10 19 -4
v -9 19 -4
v 1 23 2
v 2 23 2
v 11 23 2
v 12 23 2
v 1 23 -3
v 2 23 -3
v 11 23 -3
v 12 23 -3
v 2 24 2
v 11 24 2
v 2 24 -3
v 11 24 -3

# faces
f 4/3/1 2/3/1 1/3/1
f 5/3/1 4/3/1 3/3/1
f 6/3/1 2/3/1 4/3/1
f 6/3/1 4/3/1 5/3/1
f 7/3/1 2/3/1 6/3/1
f 9/3/1 7/3/1 6/3/1
f 9/3/1 8/3/1 7/3/1
f 10/3/1 8/3/1 9/3/1
f 11/3/1 8/3/1 10/3/1
f 13/3/1 12/3/1 11/3/1
f 13/3/1 11/3/1 10/3/1
f 14/3/1 12/3/1 13/3/1
f 15/3/1 12/3/1 14/3/1
f 16/3/1 12/3/1 15/3/1
f 20/3/1 18/3/1 17/3/1
f 21/3/1 18/3/1 20/3/1
f 23/3/1 20/3/1 19/3/1
f 23/3/1 22/3/1 21/3/1
f 23/3/1 21/3/1 20/3/1
f 24/3/1 22/3/1 23/3/1
f 25/3/1 22/3/1 24/3/1
f 26/3/1 22/3/1 25/3/1
f 27/3/1 25/3/1 24/3/1
f 28/3/1 25/3/1 27/3/1
f 29/3/1 22/3/1 26/3/1
f 30/3/1 22/3/1 29/3/1
f 33/3/1 32/3/1 31/3/1
f 34/3/1 32/3/1 33/3/1
f 37/3/1 36/3/1 35/3/1
f 39/3/1 37/3/1 35/3/1
f 39/3/1 38/3/1 37/3/1
f 40/3/1 38/3/1 39/3/1
f 41/3/1 39/3/1 35/3/1
f 42/3/1 39/3/1 41/3/1
f 43/3/1 38/3/1 40/3/1
f 44/3/1 38/3/1 43/3/1
f 47/3/1 46/3/1 45/3/1
f 48/3/1 46/3/1 47/3/1
f 51/3/1 50/3/1 49/3/1
f 52/3/1 50/3/1 51/3/1
f 55/3/1 54/3/1 53/3/1
f 56/3/1 54/3/1 55/3/1
f 57/3/1 54/3/1 56/3/1
f 58/3/1 54/3/1 57/3/1
f 61/3/1 60/3/1 59/3/1
f 62/3/1 60/3/1 61/3/1
f 65/3/1 64/3/1 63/3/1
f 66/3/1 64/3/1 65/3/1
f 69/3/1 68/3/1 67/3/1
f 70/3/1 68/3/1 69/3/1
f 75/3/1 72/3/1 71/3/1
f 76/3/1 72/3/1 75/3/1
f 77/3/1 74/3/1 73/3/1
f 78/3/1 74/3/1 77/3/1
f 81/3/1 80/3/1 79/3/1
f 82/3/1 80/3/1 81/3/1
f 85/3/1 84/3/1 83/3/1
f 86/3/1 84/3/1 85/3/1
f 89/3/1 88/3/1 87/3/1
f 90/3/1 88/3/1 89/3/1
f 93/3/1 92/3/1 91/3/1
f 94/3/1 92/3/1 93/3/1
f 99/3/1 96/3/1 95/3/1
f 100/3/1 96/3/1 99/3/1
f 101/3/1 98/3/1 97/3/1
f 102/3/1 98/3/1 101/3/1
f 103/3/1 101/3/1 100/3/1
f 104/3/1 101/3/1 103/3/1
f 107/3/1 106/3/1 105/3/1
f 108/3/1 106/3/1 107/3/1
f 113/3/1 110/3/1 109/3/1
f 114/3/1 110/3/1 113/3/1
f 115/3/1 112/3/1 111/3/1
f 116/3/1 112/3/1 115/3/1
f 119/3/1 118/3/1 117/3/1
f 120/3/1 118/3/1 119/3/1
f 124/3/1 122/3/1 121/3/1
f 125/3/1 122/3/1 124/3/1
f 127/3/1 124/3/1 123/3/1
f 127/3/1 126/3/1 125/3/1
f 127/3/1 125/3/1 124/3/1
f 128/3/1 126/3/1 127/3/1
f 133/3/1 130/3/1 129/3/1
f 134/3/1 130/3/1 133/3/1
f 135/3/1 132/3/1 131/3/1
f 136/3/1 132/3/1 135/3/1
f 139/3/1 138/3/1 137/3/1
f 140/3/1 138/3/1 139/3/1
f 141/3/2 142/3/2 144/3/2
f 144/3/2 142/3/2 145/3/2
f 143/3/2 144/3/2 147/3/2
f 145/3/2 146/3/2 147/3/2
f 144/3/2 145/3/2 147/3/2
f 147/3/2 146/3/2 148/3/2
f 148/3/2 146/3/2 149/3/2
f 149/3/2 146/3/2 150/3/2
f 151/3/2 152/3/2 155/3/2
f 155/3/2 152/3/2 156/3/2
f 153/3/2 154/3/2 157/3/2
f 156/3/2 157/3/2 158/3/2
f 157/3/2 154/3/2 159/3/2
f 158/3/2 157/3/2 159/3/2
f 160/3/2 161/3/2 163/3/2
f 163/3/2 161/3/2 164/3/2
f 162/3/2 163/3/2 165/3/2
f 165/3/2 163/3/2 166/3/2
f 166/3/2 163/3/2 167/3/2
f 167/3/2 163/3/2 168/3/2
f 166/3/2 167/3/2 169/3/2
f 169/3/2 167/3/2 170/3/2
f 171/3/2 172/3/2 175/3/2
f 175/3/2 172/3/2 176/3/2
f 173/3/2 174/3/2 177/3/2
f 177/3/2 174/3/2 178/3/2
f 178/3/2 174/3/2 179/3/2
f 176/3/2 177/3/2 180/3/2
f 177/3/2 178/3/2 180/3/2
f 180/3/2 178/3/2 181/3/2
f 182/3/2 183/3/2 184/3/2
f 184/3/2 183/3/2 185/3/2
f 186/3/2 187/3/2 188/3/2
f 188/3/2 187/3/2 189/3/2
f 190/2/2 191/2/2 194/2/2
f 194/2/2 191/2/2 195/2/2
f 192/3/2 193/3/2 196/3/2
f 196/3/2 193/3/2 197/3/2
f 198/3/2 199/3/2 200/3/2
f 200/3/2 199/3/2 201/3/2
f 202/3/2 203/3/2 204/3/2
f 204/3/2 203/3/2 205/3/2
f 206/3/2 207/3/2 211/3/2
f 208/3/2 209/3/2 212/3/2
f 209/2/2 210/2/2 213/2/2
f 212/3/2 209/3/2 213/3/2
f 210/3/2 211/3/2 214/3/2
f 213/2/2 210/2/2 214/2/2
f 211/3/2 207/3/2 215/3/2
f 214/3/2 211/3/2 215/3/2
f 215/3/2 207/3/2 216/3/2
f 216/3/2 207/3/2 217/3/2
f 218/5/2 219/5/2 220/5/2
f 220/5/2 219/5/2 221/5/2
f 222/3/2 223/3/2 226/3/2
f 223/2/2 224/2/2 226/2/2
f 224/3/2 225/3/2 227/3/2
f 226/2/2 224/2/2 227/2/2
f 222/3/2 226/3/2 228/3/2
f 228/3/2 226/3/2 229/3/2
f 227/3/2 225/3/2 230/3/2
f 230/3/2 225/3/2 231/3/2
f 232/3/2 233/3/2 234/3/2
f 234/3/2 233/3/2 235/3/2
f 236/3/2 237/3/2 240/3/2
f 240/3/2 237/3/2 241/3/2
f 238/3/2 239/3/2 242/3/2
f 242/3/2 239/3/2 243/3/2
f 244/2/2 245/2/2 247/2/2
f 247/2/2 245/2/2 248/2/2
f 246/3/2 247/3/2 250/3/2
f 247/2/2 248/2/2 250/2/2
f 248/3/2 249/3/2 251/3/2
f 250/2/2 248/2/2 251/2/2
f 246/3/2 250/3/2 252/3/2
f 250/3/2 251/3/2 252/3/2
f 251/3/2 249/3/2 253/3/2
f 252/3/2 251/3/2 253/3/2
f 254/3/2 255/3/2 258/3/2
f 258/3/2 255/3/2 259/3/2
f 256/3/2 257/3/2 260/3/2
f 260/3/2 257/3/2 261/3/2
f 262/3/2 263/3/2 264/3/2
f 264/3/2 263/3/2 265/3/2
f 266/3/2 267/3/2 268/3/2
f 268/3/2 267/3/2 269/3/2
f 270/3/2 271/3/2 272/3/2
f 272/3/2 271/3/2 273/3/2
f 273/3/2 271/3/2 274/3/2
f 274/3/2 271/3/2 275/3/2
f 270/3/2 272/3/2 276/3/2
f 272/1/2 273/1/2 276/1/2
f 273/3/2 274/3/2 277/3/2
f 276/1/2 273/1/2 277/1/2
f 274/1/2 275/1/2 278/1/2
f 277/3/2 274/3/2 278/3/2
f 275/3/2 271/3/2 279/3/2
f 278/1/2 275/1/2 279/1/2
f 277/3/2 278/3/2 280/3/2
f 276/3/2 277/3/2 280/3/2
f 278/3/2 279/3/2 280/3/2
f 270/3/2 276/3/2 280/3/2
f 279/3/2 271/3/2 281/3/2
f 280/3/2 279/3/2 281/3/2
f 285/3/3 283/3/3 282/3/3
f 286/3/3 285/3/3 284/3/3
f 287/3/3 283/3/3 285/3/3
f 287/3/3 285/3/3 286/3/3
f 288/3/3 283/3/3 287/3/3
f 289/3/3 283/3/3 288/3/3
f 293/3/3 291/3/3 290/3/3
f 294/3/3 291/3/3 293/3/3
f 297/3/3 293/3/3 292/3/3
f 297/3/3 295/3/3 294/3/3
f 297/3/3 294/3/3 293/3/3
f 299/3/3 297/3/3 296/3/3
f 300/3/3 295/3/3 297/3/3
f 300/3/3 297/3/3 299/3/3
f 301/3/3 295/3/3 300/3/3
f 303/3/3 299/3/3 298/3/3
f 303/3/3 300/3/3 299/3/3
f 304/3/3 303/3/3 302/3/3
f 305/3/3 300/3/3 303/3/3
f 305/3/3 303/3/3 304/3/3
f 306/3/3 300/3/3 305/3/3
f 308/3/3 307/3/3 306/3/3
f 310/3/3 309/3/3 308/3/3
f 315/3/3 308/3/3 306/3/3
f 315/3/3 306/3/3 305/3/3
f 315/3/3 311/3/3 310/3/3
f 315/3/3 310/3/3 308/3/3
f 316/3/3 313/3/3 312/3/3
f 318/3/3 316/3/3 312/3/3
f 318/3/3 317/3/3 316/3/3
f 319/3/3 317/3/3 318/3/3
f 320/3/3 318/3/3 312/3/3
f 321/2/3 319/2/3 318/2/3
f 321/3/3 318/3/3 320/3/3
f 322/3/3 315/3/3 314/3/3
f 323/3/3 315/3/3 322/3/3
f 324/3/3 320/3/3 312/3/3
f 324/4/3 321/4/3 320/4/3
f 325/2/3 319/2/3 321/2/3
f 325/4/3 321/4/3 324/4/3
f 326/3/3 315/3/3 323/3/3
f 327/3/3 315/3/3 326/3/3
f 328/2/3 319/2/3 325/2/3
f 328/3/3 325/3/3 324/3/3
f 329/3/3 317/3/3 319/3/3
f 329/2/3 319/2/3 328/2/3
f 330/3/3 315/3/3 327/3/3
f 331/3/3 311/3/3 315/3/3
f 331/3/3 315/3/3 330/3/3
f 332/3/3 324/3/3 312/3/3
f 332/3/3 328/3/3 324/3/3
f 332/3/3 329/3/3 328/3/3
f 333/3/3 329/3/3 332/3/3
f 334/3/3 332/3/3 312/3/3
f 335/3/3 332/3/3 334/3/3
f 336/3/3 329/3/3 333/3/3
f 336/3/3 317/3/3 329/3/3
f 337/3/3 317/3/3 336/3/3
f 338/3/3 336/3/3 333/3/3
f 339/3/3 336/3/3 338/3/3
f 345/3/3 341/3/3 340/3/3
f 346/3/3 341/3/3 345/3/3
f 348/3/3 343/3/3 342/3/3
f 349/3/3 343/3/3 348/3/3
f 350/3/3 347/3/3 346/3/3
f 350/3/3 345/3/3 344/3/3
f 350/3/3 346/3/3 345/3/3
f 351/3/3 347/3/3 350/3/3
f 352/3/3 347/3/3 351/3/3
f 353/3/3 347/3/3 352/3/3
f 354/3/3 352/3/3 351/3/3
f 355/3/3 352/3/3 354/3/3
f 357/3/3 354/3/3 351/3/3
f 358/3/3 354/3/3 357/3/3
f 359/3/3 357/3/3 356/3/3
f 360/3/3 357/3/3 359/3/3
f 365/3/3 362/3/3 361/3/3
f 366/3/3 362/3/3 365/3/3
f 367/3/3 364/3/3 363/3/3
f 368/3/3 364/3/3 367/3/3
f 370/3/3 369/3/3 368/3/3
f 371/3/3 369/3/3 370/3/3
f 372/2/3 366/2/3 365/2/3
f 373/2/3 366/2/3 372/2/3
f 378/3/3 375/3/3 374/3/3
f 379/3/3 375/3/3 378/3/3
f 380/2/3 377/2/3 376/2/3
f 381/2/3 377/2/3 380/2/3
f 386/3/3 383/3/3 382/3/3
f 387/3/3 383/3/3 386/3/3
f 388/3/3 385/3/3 384/3/3
f 389/3/3 385/3/3 388/3/3
f 391/3/3 385/3/3 389/3/3
f 392/3/3 385/3/3 391/3/3
f 393/3/3 391/3/3 390/3/3
f 394/3/3 391/3/3 393/3/3
f 397/3/3 396/3/3 395/3/3
f 398/3/3 396/3/3 397/3/3
f 401/3/3 400/3/3 399/3/3
f 402/3/3 400/3/3 401/3/3
f 405/3/3 404/3/3 403/3/3
f 406/3/3 404/3/3 405/3/3
f 409/3/3 408/3/3 407/3/3
f 410/3/3 408/3/3 409/3/3
f 413/3/3 412/3/3 411/3/3
f 414/3/3 412/3/3 413/3/3
f 417/3/3 416/3/3 415/3/3
f 419/3/3 417/3/3 415/3/3
f 419/3/3 418/3/3 417/3/3
f 420/3/3 418/3/3 419/3/3
f 421/3/3 418/3/3 420/3/3
f 422/3/3 418/3/3 421/3/3
f 423/3/4 424/3/4 425/3/4
f 425/3/4 424/3/4 426/3/4
f 427/3/4 428/3/4 429/3/4
f 429/3/4 428/3/4 430/3/4
f 431/3/4 432/3/4 433/3/4
f 433/3/4 432/3/4 434/3/4
f 435/3/4 436/3/4 437/3/4
f 437/3/4 436/3/4 438/3/4
f 439/3/4 440/3/4 441/3/4
f 441/3/4 440/3/4 442/3/4
f 443/3/4 444/3/4 445/3/4
f 445/3/4 444/3/4 446/3/4
f 447/3/4 448/3/4 451/3/4
f 451/3/4 448/3/4 452/3/4
f 452/3/4 448/3/4 453/3/4
f 449/3/4 450/3/4 457/3/4
f 457/3/4 450/3/4 458/3/4
f 453/3/4 454/3/4 459/3/4
f 452/3/4 453/3/4 459/3/4
f 459/3/4 454/3/4 460/3/4
f 460/3/4 454/3/4 461/3/4
f 461/3/4 454/3/4 462/3/4
f 455/3/4 456/3/4 463/3/4
f 463/3/4 456/3/4 464/3/4
f 460/3/4 461/3/4 466/3/4
f 466/3/4 461/3/4 467/3/4
f 465/3/4 466/3/4 468/3/4
f 468/3/4 466/3/4 469/3/4
f 470/3/4 471/3/4 474/3/4
f 474/3/4 471/3/4 475/3/4
f 472/3/4 473/3/4 476/3/4
f 476/3/4 473/3/4 477/3/4
f 477/3/4 478/3/4 479/3/4
f 479/3/4 478/3/4 480/3/4
f 474/2/4 475/2/4 481/2/4
f 481/2/4 475/2/4 482/2/4
f 483/3/4 484/3/4 487/3/4
f 487/3/4 484/3/4 488/3/4
f 485/2/4 486/2/4 489/2/4
f 489/2/4 486/2/4 490/2/4
f 491/3/4 492/3/4 495/3/4
f 495/3/4 492/3/4 496/3/4
f 493/3/4 494/3/4 498/3/4
f 498/3/4 494/3/4 499/3/4
f 497/3/4 498/3/4 502/3/4
f 499/3/4 500/3/4 502/3/4
f 498/3/4 499/3/4 502/3/4
f 502/3/4 500/3/4 503/3/4
f 503/3/4 500/3/4 504/3/4
f 501/3/4 502/3/4 506/3/4
f 502/3/4 503/3/4 506/3/4
f 506/3/4 503/3/4 507/3/4
f 507/3/4 503/3/4 508/3/4
f 505/3/4 506/3/4 510/3/4
f 506/3/4 507/3/4 510/3/4
f 509/3/4 510/3/4 511/3/4
f 510/3/4 507/3/4 512/3/4
f 511/3/4 510/3/4 512/3/4
f 512/3/4 507/3/4 513/3/4
f 513/3/4 514/3/4 515/3/4
f 512/3/4 513/3/4 515/3/4
f 515/3/4 514/3/4 516/3/4
f 516/3/4 514/3/4 517/3/4
f 517/3/4 518/3/4 519/3/4
f 521/3/4 522/3/4 523/3/4
f 519/3/4 520/3/4 526/3/4
f 517/3/4 519/3/4 526/3/4
f 516/3/4 517/3/4 526/3/4
f 523/3/4 524/3/4 527/3/4
f 521/3/4 523/3/4 527/3/4
f 527/3/4 524/3/4 528/3/4
f 521/3/4 527/3/4 529/3/4
f 527/2/4 528/2/4 530/2/4
f 529/3/4 527/3/4 530/3/4
f 525/3/4 526/3/4 532/3/4
f 521/3/4 529/3/4 533/3/4
f 529/4/4 530/4/4 533/4/4
f 530/2/4 528/2/4 534/2/4
f 533/4/4 530/4/4 534/4/4
f 531/3/4 532/3/4 535/3/4
f 532/3/4 526/3/4 536/3/4
f 535/3/4 532/3/4 536/3/4
f 534/2/4 528/2/4 537/2/4
f 533/3/4 534/3/4 537/3/4
f 528/3/4 524/3/4 538/3/4
f 537/2/4 528/2/4 538/2/4
f 536/3/4 526/3/4 539/3/4
f 526/3/4 520/3/4 540/3/4
f 539/3/4 526/3/4 540/3/4
f 521/3/4 533/3/4 541/3/4
f 533/3/4 537/3/4 541/3/4
f 537/3/4 538/3/4 541/3/4
f 541/3/4 538/3/4 542/3/4
f 521/3/4 541/3/4 543/3/4
f 543/3/4 541/3/4 544/3/4
f 542/3/4 538/3/4 545/3/4
f 538/3/4 524/3/4 545/3/4
f 545/3/4 524/3/4 546/3/4
f 542/3/4 545/3/4 547/3/4
f 547/3/4 545/3/4 548/3/4
f 549/3/4 550/3/4 551/3/4
f 551/3/4 550/3/4 552/3/4
f 553/3/4 554/3/4 555/3/4
f 557/3/4 558/3/4 559/3/4
f 553/3/4 555/3/4 560/3/4
f 555/3/4 556/3/4 560/3/4
f 560/3/4 556/3/4 561/3/4
f 559/3/4 560/3/4 561/3/4
f 561/3/4 556/3/4 562/3/4
f 557/3/4 559/3/4 563/3/4
f 559/3/4 561/3/4 563/3/4
f 563/3/4 561/3/4 564/3/4
f 564/3/4 561/3/4 565/3/4
f 565/3/4 561/3/4 566/3/4
f 569/3/5 568/3/5 567/3/5
f 570/3/5 568/3/5 569/3/5
f 573/3/5 572/3/5 571/3/5
f 574/3/5 572/3/5 573/3/5
f 578/3/5 576/3/5 575/3/5
f 578/2/5 577/2/5 576/2/5
f 579/2/5 577/2/5 578/2/5
f 580/3/5 578/3/5 575/3/5
f 580/3/5 579/3/5 578/3/5
f 581/2/5 577/2/5 579/2/5
f 581/3/5 579/3/5 580/3/5
f 582/3/5 580/3/5 575/3/5
f 583/2/5 581/2/5 580/2/5
f 583/3/5 580/3/5 582/3/5
f 584/2/5 577/2/5 581/2/5
f 584/2/5 581/2/5 583/2/5
f 587/3/5 586/3/5 585/3/5
f 588/3/5 586/3/5 587/3/5
f 594/3/5 590/3/5 589/3/5
f 595/3/5 590/3/5 594/3/5
f 596/3/5 592/3/5 591/3/5
f 597/3/5 592/3/5 596/3/5
f 599/3/5 595/3/5 594/3/5
f 599/3/5 598/3/5 597/3/5
f 599/3/5 597/3/5 596/3/5
f 599/3/5 596/3/5 595/3/5
f 599/3/5 594/3/5 593/3/5
f 600/3/5 598/3/5 599/3/5
f 601/3/5 598/3/5 600/3/5
f 602/3/5 598/3/5 601/3/5
f 603/3/5 599/3/5 593/3/5
f 605/2/5 602/2/5 601/2/5
f 606/2/5 602/2/5 605/2/5
f 607/3/5 604/3/5 603/3/5
f 607/3/5 603/3/5 593/3/5
f 607/3/5 606/3/5 605/3/5
f 607/3/5 605/3/5 604/3/5
f 608/3/5 606/3/5 607/3/5
f 609/3/5 606/3/5 608/3/5
f 610/3/5 606/3/5 609/3/5
f 611/3/5 609/3/5 608/3/5
f 612/3/5 609/3/5 611/3/5
f 617/3/5 616/3/5 615/3/5
f 618/3/5 616/3/5 617/3/5
f 619/2/5 618/2/5 617/2/5
f 620/2/5 618/2/5 619/2/5
f 621/3/5 614/3/5 613/3/5
f 622/3/5 614/3/5 621/3/5
f 623/3/5 620/3/5 619/3/5
f 624/3/5 620/3/5 623/3/5
f 629/2/5 628/2/5 627/2/5
f 630/2/5 628/2/5 629/2/5
f 631/3/5 626/3/5 625/3/5
f 632/3/5 626/3/5 631/3/5
f 637/3/5 636/3/5 635/3/5
f 638/3/5 636/3/5 637/3/5
f 639/3/5 634/3/5 633/3/5
f 640/3/5 634/3/5 639/3/5
f 643/3/5 642/3/5 641/3/5
f 644/3/5 642/3/5 643/3/5
f 647/3/5 646/3/5 645/3/5
f 648/3/5 646/3/5 647/3/5
f 651/3/5 650/3/5 649/3/5
f 652/3/5 650/3/5 651/3/5
f 655/3/5 654/3/5 653/3/5
f 656/3/5 654/3/5 655/3/5
f 659/3/5 658/3/5 657/3/5
f 660/3/5 658/3/5 659/3/5
f 663/3/5 662/3/5 661/3/5
f 664/3/5 662/3/5 663/3/5
f 667/3/5 666/3/5 665/3/5
f 668/3/5 666/3/5 667/3/5
f 671/3/5 670/3/5 669/3/5
f 672/3/5 670/3/5 671/3/5
f 673/3/5 671/3/5 669/3/5
f 674/3/5 671/3/5 673/3/5
f 679/3/5 676/3/5 675/3/5
f 680/3/5 670/3/5 672/3/5
f 681/3/5 678/3/5 677/3/5
f 682/3/5 678/3/5 681/3/5
f 683/3/5 679/3/5 675/3/5
f 683/3/5 680/3/5 679/3/5
f 684/3/5 670/3/5 680/3/5
f 684/3/5 680/3/5 683/3/5
f 687/3/5 686/3/5 685/3/5
f 688/3/5 686/3/5 687/3/5
f 692/3/5 690/3/5 689/3/5
f 694/3/5 692/3/5 691/3/5
f 695/3/5 694/3/5 693/3/5
f 696/3/5 692/3/5 694/3/5
f 696/3/5 694/3/5 695/3/5
f 697/3/5 692/3/5 696/3/5
f 698/3/5 690/3/5 692/3/5
f 698/3/5 692/3/5 697/3/5
f 699/3/5 690/3/5 698/3/5
f 700/3/5 690/3/5 699/3/5
f 701/3/6 702/3/6 703/3/6
f 703/3/6 702/3/6 704/3/6
f 705/3/6 706/3/6 707/3/6
f 707/3/6 706/3/6 708/3/6
f 709/3/6 710/3/6 711/3/6
f 711/3/6 710/3/6 712/3/6
f 713/3/6 714/3/6 715/3/6
f 715/3/6 714/3/6 716/3/6
f 717/3/6 718/3/6 719/3/6
f 719/3/6 718/3/6 720/3/6
f 721/3/6 722/3/6 725/3/6
f 725/3/6 722/3/6 726/3/6
f 723/3/6 724/3/6 727/3/6
f 727/3/6 724/3/6 728/3/6
f 728/3/6 724/3/6 730/3/6
f 729/3/6 730/3/6 731/3/6
f 730/3/6 724/3/6 732/3/6
f 731/3/6 730/3/6 732/3/6
f 733/3/6 734/3/6 737/3/6
f 737/3/6 734/3/6 738/3/6
f 735/3/6 736/3/6 740/3/6
f 740/3/6 736/3/6 741/3/6
f 738/3/6 739/3/6 742/3/6
f 742/3/6 739/3/6 743/3/6
f 735/3/6 740/3/6 748/3/6
f 744/3/6 745/3/6 750/3/6
f 750/3/6 745/3/6 751/3/6
f 746/3/6 747/3/6 752/3/6
f 752/3/6 747/3/6 753/3/6
f 748/3/6 749/3/6 754/3/6
f 735/3/6 748/3/6 754/3/6
f 754/3/6 749/3/6 755/3/6
f 756/3/6 757/3/6 761/3/6
f 761/3/6 757/3/6 762/3/6
f 758/3/6 759/3/6 764/3/6
f 764/3/6 759/3/6 765/3/6
f 760/3/6 761/3/6 766/3/6
f 766/3/6 761/3/6 767/3/6
f 763/3/6 764/3/6 769/3/6
f 769/3/6 764/3/6 770/3/6
f 767/3/6 768/3/6 771/3/6
f 771/3/6 768/3/6 772/3/6
f 773/3/6 774/3/6 780/3/6
f 780/3/6 774/3/6 781/3/6
f 781/3/6 774/3/6 782/3/6
f 775/3/6 776/3/6 783/3/6
f 783/3/6 776/3/6 784/3/6
f 777/3/6 778/3/6 785/3/6
f 785/3/6 778/3/6 786/3/6
f 779/3/6 780/3/6 787/3/6
f 780/3/6 781/3/6 787/3/6
f 787/3/6 781/3/6 788/3/6
f 779/3/6 787/3/6 791/3/6
f 789/3/6 790/3/6 793/3/6
f 793/3/6 790/3/6 794/3/6
f 791/3/6 792/3/6 795/3/6
f 779/3/6 791/3/6 795/3/6
f 795/3/6 792/3/6 796/3/6
f 796/3/6 792/3/6 797/3/6
f 782/3/6 774/3/6 798/3/6
f 796/3/6 797/3/6 799/3/6
f 797/3/6 798/3/6 799/3/6
f 798/3/6 774/3/6 800/3/6
f 799/3/6 798/3/6 800/3/6
f 801/3/6 802/3/6 803/3/6
f 803/3/6 802/3/6 804/3/6
f 804/3/6 805/3/6 806/3/6
f 806/3/6 805/3/6 807/3/6
f 808/3/6 809/3/6 811/3/6
f 810/3/6 811/3/6 815/3/6
f 812/3/6 813/3/6 816/3/6
f 816/3/6 813/3/6 817/3/6
f 814/3/6 815/3/6 818/3/6
f 815/3/6 811/3/6 819/3/6
f 818/3/6 815/3/6 819/3/6
f 817/3/6 813/3/6 820/3/6
f 820/3/6 813/3/6 821/3/6
f 819/3/6 811/3/6 822/3/6
f 811/3/6 809/3/6 823/3/6
f 822/3/6 811/3/6 823/3/6
f 823/3/6 809/3/6 824/3/6
f 824/3/6 809/3/6 825/3/6
f 826/3/6 827/3/6 828/3/6
f 828/3/6 827/3/6 829/3/6
f 830/3/6 831/3/6 832/3/6
f 832/3/6 831/3/6 833/3/6
f 834/3/6 835/3/6 838/3/6
f 838/3/6 835/3/6 839/3/6
f 836/3/6 837/3/6 840/3/6
f 840/3/6 837/3/6 841/3/6
f 842/3/6 843/3/6 844/3/6
f 844/3/6 843/3/6 845/3/6
