# MagicaVoxel @ Ephtracy

# material
mtllib enemyArm.mtl
usemtl palette

# normals
vn -1 0 0
vn 1 0 0
vn 0 0 1
vn 0 0 -1
vn 0 -1 0
vn 0 1 0

# texcoords
vt 0.970703 0.5

# verts
v 5 11 -3
v 5 11 -5
v 5 14 -3
v 5 14 -5
v 9 10 -4
v 9 10 -5
v 9 11 -4
v 9 11 -5
v 6 11 -3
v 6 11 -4
v 6 12 -3
v 6 12 -4
v 7 12 -3
v 7 12 -4
v 7 12 -5
v 7 14 -3
v 7 14 -5
v 10 10 -4
v 10 10 -5
v 10 12 -4
v 10 12 -5
v 5 11 -3
v 5 14 -3
v 6 11 -3
v 6 12 -3
v 7 12 -3
v 7 14 -3
v 6 11 -4
v 6 12 -4
v 7 12 -4
v 9 10 -4
v 9 11 -4
v 10 10 -4
v 10 12 -4
v 5 11 -5
v 5 14 -5
v 7 12 -5
v 7 14 -5
v 9 10 -5
v 9 11 -5
v 10 10 -5
v 10 12 -5
v 9 10 -4
v 10 10 -4
v 9 10 -5
v 10 10 -5
v 5 11 -3
v 6 11 -3
v 6 11 -4
v 9 11 -4
v 5 11 -5
v 9 11 -5
v 6 12 -3
v 7 12 -3
v 6 12 -4
v 7 12 -4
v 7 12 -4
v 10 12 -4
v 7 12 -5
v 10 12 -5
v 5 14 -3
v 7 14 -3
v 5 14 -5
v 7 14 -5

# faces
f 3/1/1 2/1/1 1/1/1
f 4/1/1 2/1/1 3/1/1
f 7/1/1 6/1/1 5/1/1
f 8/1/1 6/1/1 7/1/1
f 9/1/2 10/1/2 11/1/2
f 11/1/2 10/1/2 12/1/2
f 13/1/2 14/1/2 16/1/2
f 14/1/2 15/1/2 16/1/2
f 16/1/2 15/1/2 17/1/2
f 18/1/2 19/1/2 20/1/2
f 20/1/2 19/1/2 21/1/2
f 24/1/3 23/1/3 22/1/3
f 25/1/3 23/1/3 24/1/3
f 26/1/3 23/1/3 25/1/3
f 27/1/3 23/1/3 26/1/3
f 30/1/3 29/1/3 28/1/3
f 32/1/3 30/1/3 28/1/3
f 33/1/3 32/1/3 31/1/3
f 34/1/3 30/1/3 32/1/3
f 34/1/3 32/1/3 33/1/3
f 35/1/4 36/1/4 37/1/4
f 37/1/4 36/1/4 38/1/4
f 35/1/4 37/1/4 40/1/4
f 39/1/4 40/1/4 41/1/4
f 40/1/4 37/1/4 42/1/4
f 41/1/4 40/1/4 42/1/4
f 45/1/5 44/1/5 43/1/5
f 46/1/5 44/1/5 45/1/5
f 49/1/5 48/1/5 47/1/5
f 51/1/5 49/1/5 47/1/5
f 51/1/5 50/1/5 49/1/5
f 52/1/5 50/1/5 51/1/5
f 55/1/5 54/1/5 53/1/5
f 56/1/5 54/1/5 55/1/5
f 57/1/6 58/1/6 59/1/6
f 59/1/6 58/1/6 60/1/6
f 61/1/6 62/1/6 63/1/6
f 63/1/6 62/1/6 64/1/6
