# MagicaVoxel @ Ephtracy

# material
mtllib head2.mtl
usemtl palette

# normals
vn -1 0 0
vn 1 0 0
vn 0 0 1
vn 0 0 -1
vn 0 -1 0
vn 0 1 0

# texcoords
vt 0.0332031 0.5
vt 0.0605469 0.5
vt 0.634766 0.5
vt 0.994141 0.5

# verts
v -5 10 0.5
v -5 10 -0.5
v -5 11 0.5
v -5 11 -0.5
v -4 8 0.5
v -4 8 -0.5
v -4 8 -1.5
v -4 8 -3.5
v -4 9 0.5
v -4 9 -0.5
v -4 9 -1.5
v -4 9 -2.5
v -4 9 -3.5
v -4 10 1.5
v -4 10 0.5
v -4 10 -0.5
v -4 10 -1.5
v -4 10 -2.5
v -4 11 1.5
v -4 11 0.5
v -4 11 -0.5
v -4 11 -1.5
v -4 12 0.5
v -4 12 -0.5
v -3 7 0.5
v -3 7 -2.5
v -3 8 1.5
v -3 8 0.5
v -3 8 -0.5
v -3 8 -1.5
v -3 8 -2.5
v -3 9 2.5
v -3 9 1.5
v -3 9 0.5
v -3 9 -0.5
v -3 9 -1.5
v -3 10 1.5
v -3 10 0.5
v -3 10 -1.5
v -3 10 -2.5
v -3 11 2.5
v -3 11 1.5
v -3 11 0.5
v -3 11 -0.5
v -3 11 -1.5
v -3 12 1.5
v -3 12 0.5
v -3 12 -0.5
v -3 12 -1.5
v -3 12 -2.5
v -3 13 0.5
v -3 13 -1.5
v -2 7 1.5
v -2 7 0.5
v -2 7 -2.5
v -2 7 -3.5
v -2 8 1.5
v -2 8 0.5
v -2 10 3.5
v -2 10 2.5
v -2 11 3.5
v -2 11 2.5
v -2 11 1.5
v -2 12 2.5
v -2 12 1.5
v -2 12 0.5
v -2 12 -1.5
v -2 12 -2.5
v -2 12 -3.5
v -2 13 1.5
v -2 13 0.5
v -2 13 -1.5
v -2 13 -2.5
v -2 14 0.5
v -2 14 -1.5
v -1 8 -3.5
v -1 8 -4.5
v -1 11 -3.5
v -1 11 -4.5
v 0 9 2.5
v 0 9 1.5
v 0 10 2.5
v 0 10 1.5
v 2 9 2.5
v 2 9 1.5
v 2 10 2.5
v 2 10 1.5
v 3 8 -2.5
v 3 8 -3.5
v 3 9 -2.5
v 3 9 -3.5
v 3 11 2.5
v 3 11 1.5
v 3 12 2.5
v 3 12 1.5
v -3 8 -2.5
v -3 8 -3.5
v -3 9 -2.5
v -3 9 -3.5
v -2 9 2.5
v -2 9 1.5
v -2 10 2.5
v -2 10 1.5
v 1 8 -3.5
v 1 8 -4.5
v 1 9 2.5
v 1 9 1.5
v 1 10 2.5
v 1 10 1.5
v 1 11 -3.5
v 1 11 -4.5
v 2 7 1.5
v 2 7 0.5
v 2 7 -2.5
v 2 7 -3.5
v 2 8 1.5
v 2 8 0.5
v 2 10 3.5
v 2 10 2.5
v 2 11 3.5
v 2 11 2.5
v 2 11 1.5
v 2 12 2.5
v 2 12 1.5
v 2 12 0.5
v 2 12 -1.5
v 2 12 -2.5
v 2 12 -3.5
v 2 13 1.5
v 2 13 0.5
v 2 13 -1.5
v 2 13 -2.5
v 2 14 0.5
v 2 14 -1.5
v 3 7 0.5
v 3 7 -2.5
v 3 8 1.5
v 3 8 0.5
v 3 8 -0.5
v 3 8 -1.5
v 3 8 -2.5
v 3 9 2.5
v 3 9 1.5
v 3 9 0.5
v 3 9 -0.5
v 3 9 -1.5
v 3 10 1.5
v 3 10 0.5
v 3 10 -1.5
v 3 10 -2.5
v 3 11 2.5
v 3 11 1.5
v 3 11 0.5
v 3 12 1.5
v 3 12 0.5
v 3 12 -1.5
v 3 12 -2.5
v 3 13 0.5
v 3 13 -1.5
v 4 8 0.5
v 4 8 -0.5
v 4 8 -1.5
v 4 8 -3.5
v 4 9 0.5
v 4 9 -0.5
v 4 9 -1.5
v 4 9 -2.5
v 4 9 -3.5
v 4 10 1.5
v 4 10 0.5
v 4 10 -0.5
v 4 10 -1.5
v 4 10 -2.5
v 4 11 2.5
v 4 11 1.5
v 4 11 0.5
v 4 11 -0.5
v 4 12 2.5
v 4 12 1.5
v 4 12 0.5
v 4 12 -1.5
v 5 10 0.5
v 5 10 -0.5
v 5 11 0.5
v 5 11 -0.5
v -2 10 3.5
v -2 11 3.5
v 2 10 3.5
v 2 11 3.5
v -3 9 2.5
v -3 11 2.5
v -2 9 2.5
v -2 10 2.5
v -2 11 2.5
v -2 12 2.5
v 0 9 2.5
v 0 10 2.5
v 1 9 2.5
v 1 10 2.5
v 2 9 2.5
v 2 10 2.5
v 2 11 2.5
v 2 12 2.5
v 3 9 2.5
v 3 11 2.5
v 3 12 2.5
v 4 11 2.5
v 4 12 2.5
v -4 10 1.5
v -4 11 1.5
v -3 8 1.5
v -3 9 1.5
v -3 10 1.5
v -3 11 1.5
v -3 12 1.5
v -2 7 1.5
v -2 8 1.5
v -2 9 1.5
v -2 10 1.5
v -2 11 1.5
v -2 12 1.5
v -2 13 1.5
v -1 8 1.5
v -1 9 1.5
v 0 7 1.5
v 0 8 1.5
v 0 9 1.5
v 0 10 1.5
v 1 8 1.5
v 1 9 1.5
v 1 10 1.5
v 2 7 1.5
v 2 8 1.5
v 2 9 1.5
v 2 10 1.5
v 2 11 1.5
v 2 12 1.5
v 2 13 1.5
v 3 8 1.5
v 3 9 1.5
v 3 10 1.5
v 3 11 1.5
v 3 12 1.5
v 4 10 1.5
v 4 11 1.5
v -5 10 0.5
v -5 11 0.5
v -4 8 0.5
v -4 9 0.5
v -4 10 0.5
v -4 11 0.5
v -4 12 0.5
v -3 7 0.5
v -3 8 0.5
v -3 9 0.5
v -3 10 0.5
v -3 11 0.5
v -3 12 0.5
v -3 13 0.5
v -2 7 0.5
v -2 8 0.5
v -2 12 0.5
v -2 13 0.5
v -2 14 0.5
v 2 7 0.5
v 2 8 0.5
v 2 12 0.5
v 2 13 0.5
v 2 14 0.5
v 3 7 0.5
v 3 8 0.5
v 3 9 0.5
v 3 10 0.5
v 3 11 0.5
v 3 12 0.5
v 3 13 0.5
v 4 8 0.5
v 4 9 0.5
v 4 10 0.5
v 4 11 0.5
v 4 12 0.5
v 5 10 0.5
v 5 11 0.5
v -4 8 -1.5
v -4 9 -1.5
v -3 8 -1.5
v -3 9 -1.5
v 3 8 -1.5
v 3 9 -1.5
v 4 8 -1.5
v 4 9 -1.5
v 3 11 1.5
v 3 12 1.5
v 4 11 1.5
v 4 12 1.5
v -5 10 -0.5
v -5 11 -0.5
v -4 8 -0.5
v -4 9 -0.5
v -4 10 -0.5
v -4 11 -0.5
v -4 12 -0.5
v -3 8 -0.5
v -3 9 -0.5
v -3 11 -0.5
v -3 12 -0.5
v 3 8 -0.5
v 3 9 -0.5
v 4 8 -0.5
v 4 9 -0.5
v 4 10 -0.5
v 4 11 -0.5
v 5 10 -0.5
v 5 11 -0.5
v -4 10 -1.5
v -4 11 -1.5
v -3 10 -1.5
v -3 11 -1.5
v -3 12 -1.5
v -3 13 -1.5
v -2 12 -1.5
v -2 13 -1.5
v -2 14 -1.5
v 2 12 -1.5
v 2 13 -1.5
v 2 14 -1.5
v 3 10 -1.5
v 3 12 -1.5
v 3 13 -1.5
v 4 10 -1.5
v 4 12 -1.5
v -4 9 -2.5
v -4 10 -2.5
v -3 7 -2.5
v -3 8 -2.5
v -3 9 -2.5
v -3 10 -2.5
v -3 12 -2.5
v -2 7 -2.5
v -2 12 -2.5
v -2 13 -2.5
v 2 7 -2.5
v 2 12 -2.5
v 2 13 -2.5
v 3 7 -2.5
v 3 8 -2.5
v 3 9 -2.5
v 3 10 -2.5
v 3 12 -2.5
v 4 9 -2.5
v 4 10 -2.5
v -4 8 -3.5
v -4 9 -3.5
v -3 8 -3.5
v -3 9 -3.5
v -2 7 -3.5
v -2 12 -3.5
v -1 8 -3.5
v -1 11 -3.5
v 1 8 -3.5
v 1 11 -3.5
v 2 7 -3.5
v 2 12 -3.5
v 3 8 -3.5
v 3 9 -3.5
v 4 8 -3.5
v 4 9 -3.5
v -1 8 -4.5
v -1 11 -4.5
v 1 8 -4.5
v 1 11 -4.5
v -2 7 1.5
v 0 7 1.5
v 2 7 1.5
v -3 7 0.5
v -2 7 0.5
v 0 7 0.5
v 2 7 0.5
v 3 7 0.5
v -3 7 -2.5
v -2 7 -2.5
v 2 7 -2.5
v 3 7 -2.5
v -2 7 -3.5
v 2 7 -3.5
v -3 8 1.5
v -2 8 1.5
v 2 8 1.5
v 3 8 1.5
v -4 8 0.5
v -3 8 0.5
v -2 8 0.5
v 2 8 0.5
v 3 8 0.5
v 4 8 0.5
v -4 8 -0.5
v -3 8 -0.5
v 3 8 -0.5
v 4 8 -0.5
v -4 8 -1.5
v -3 8 -1.5
v 3 8 -1.5
v 4 8 -1.5
v -3 8 -2.5
v 3 8 -2.5
v -4 8 -3.5
v -3 8 -3.5
v -1 8 -3.5
v 1 8 -3.5
v 3 8 -3.5
v 4 8 -3.5
v -1 8 -4.5
v 1 8 -4.5
v -3 9 2.5
v -2 9 2.5
v 0 9 2.5
v 1 9 2.5
v 2 9 2.5
v 3 9 2.5
v -3 9 1.5
v -2 9 1.5
v 0 9 1.5
v 1 9 1.5
v 2 9 1.5
v 3 9 1.5
v -4 9 -0.5
v -3 9 -0.5
v 3 9 -0.5
v 4 9 -0.5
v -4 9 -1.5
v -3 9 -1.5
v 3 9 -1.5
v 4 9 -1.5
v -2 10 3.5
v 2 10 3.5
v -2 10 2.5
v 0 10 2.5
v 1 10 2.5
v 2 10 2.5
v -4 10 1.5
v -3 10 1.5
v -2 10 1.5
v 0 10 1.5
v 1 10 1.5
v 2 10 1.5
v 3 10 1.5
v 4 10 1.5
v -5 10 0.5
v -4 10 0.5
v -3 10 0.5
v 3 10 0.5
v 4 10 0.5
v 5 10 0.5
v -5 10 -0.5
v -4 10 -0.5
v 4 10 -0.5
v 5 10 -0.5
v 3 11 2.5
v 4 11 2.5
v 3 11 1.5
v 4 11 1.5
v -4 9 -2.5
v -3 9 -2.5
v 3 9 -2.5
v 4 9 -2.5
v -4 9 -3.5
v -3 9 -3.5
v 3 9 -3.5
v 4 9 -3.5
v -4 10 -1.5
v -3 10 -1.5
v 3 10 -1.5
v 4 10 -1.5
v -4 10 -2.5
v -3 10 -2.5
v 3 10 -2.5
v 4 10 -2.5
v -2 11 3.5
v 2 11 3.5
v -3 11 2.5
v -2 11 2.5
v 2 11 2.5
v 3 11 2.5
v -4 11 1.5
v -3 11 1.5
v -2 11 1.5
v 2 11 1.5
v 3 11 1.5
v 4 11 1.5
v -5 11 0.5
v -4 11 0.5
v -3 11 0.5
v 3 11 0.5
v 4 11 0.5
v 5 11 0.5
v -5 11 -0.5
v -4 11 -0.5
v -3 11 -0.5
v 4 11 -0.5
v 5 11 -0.5
v -4 11 -1.5
v -3 11 -1.5
v -1 11 -3.5
v 1 11 -3.5
v -1 11 -4.5
v 1 11 -4.5
v -2 12 2.5
v 2 12 2.5
v 3 12 2.5
v 4 12 2.5
v -3 12 1.5
v -2 12 1.5
v 2 12 1.5
v 3 12 1.5
v 4 12 1.5
v -4 12 0.5
v -3 12 0.5
v -2 12 0.5
v 2 12 0.5
v 3 12 0.5
v 4 12 0.5
v -4 12 -0.5
v -3 12 -0.5
v -3 12 -1.5
v -2 12 -1.5
v 2 12 -1.5
v 3 12 -1.5
v 4 12 -1.5
v -3 12 -2.5
v -2 12 -2.5
v 2 12 -2.5
v 3 12 -2.5
v -2 12 -3.5
v 2 12 -3.5
v -2 13 1.5
v 2 13 1.5
v -3 13 0.5
v -2 13 0.5
v 2 13 0.5
v 3 13 0.5
v -3 13 -1.5
v -2 13 -1.5
v 2 13 -1.5
v 3 13 -1.5
v -2 13 -2.5
v 2 13 -2.5
v -2 14 0.5
v 2 14 0.5
v -2 14 -1.5
v 2 14 -1.5

# faces
f 3/3/1 2/3/1 1/3/1
f 4/3/1 2/3/1 3/3/1
f 9/2/1 6/2/1 5/2/1
f 10/2/1 6/2/1 9/2/1
f 11/3/1 8/3/1 7/3/1
f 12/3/1 8/3/1 11/3/1
f 13/3/1 8/3/1 12/3/1
f 15/3/1 10/3/1 9/3/1
f 15/3/1 11/3/1 10/3/1
f 15/3/1 12/3/1 11/3/1
f 16/3/1 12/3/1 15/3/1
f 17/3/1 12/3/1 16/3/1
f 18/3/1 12/3/1 17/3/1
f 19/3/1 15/3/1 14/3/1
f 20/3/1 15/3/1 19/3/1
f 21/3/1 17/3/1 16/3/1
f 22/3/1 17/3/1 21/3/1
f 23/3/1 21/3/1 20/3/1
f 24/3/1 21/3/1 23/3/1
f 28/3/1 26/3/1 25/3/1
f 29/3/1 26/3/1 28/3/1
f 30/3/1 26/3/1 29/3/1
f 31/3/1 26/3/1 30/3/1
f 33/3/1 28/3/1 27/3/1
f 34/3/1 28/3/1 33/3/1
f 35/3/1 30/3/1 29/3/1
f 36/3/1 30/3/1 35/3/1
f 37/3/1 34/3/1 33/3/1
f 37/3/1 33/3/1 32/3/1
f 38/3/1 34/3/1 37/3/1
f 41/3/1 37/3/1 32/3/1
f 42/3/1 37/3/1 41/3/1
f 45/3/1 40/3/1 39/3/1
f 46/3/1 43/3/1 42/3/1
f 47/3/1 43/3/1 46/3/1
f 48/3/1 45/3/1 44/3/1
f 49/3/1 40/3/1 45/3/1
f 49/3/1 45/3/1 48/3/1
f 50/3/1 40/3/1 49/3/1
f 51/3/1 48/3/1 47/3/1
f 51/3/1 49/3/1 48/3/1
f 52/3/1 49/3/1 51/3/1
f 57/2/1 54/2/1 53/2/1
f 58/2/1 54/2/1 57/2/1
f 61/3/1 60/3/1 59/3/1
f 62/3/1 60/3/1 61/3/1
f 64/3/1 63/3/1 62/3/1
f 65/3/1 63/3/1 64/3/1
f 68/3/1 56/3/1 55/3/1
f 69/3/1 56/3/1 68/3/1
f 70/3/1 66/3/1 65/3/1
f 71/3/1 66/3/1 70/3/1
f 72/3/1 68/3/1 67/3/1
f 73/3/1 68/3/1 72/3/1
f 74/3/1 72/3/1 71/3/1
f 75/3/1 72/3/1 74/3/1
f 78/3/1 77/3/1 76/3/1
f 79/3/1 77/3/1 78/3/1
f 82/3/1 81/3/1 80/3/1
f 83/3/1 81/3/1 82/3/1
f 86/3/1 85/3/1 84/3/1
f 87/3/1 85/3/1 86/3/1
f 90/3/1 89/3/1 88/3/1
f 91/3/1 89/3/1 90/3/1
f 94/3/1 93/3/1 92/3/1
f 95/3/1 93/3/1 94/3/1
f 96/3/2 97/3/2 98/3/2
f 98/3/2 97/3/2 99/3/2
f 100/3/2 101/3/2 102/3/2
f 102/3/2 101/3/2 103/3/2
f 106/3/2 107/3/2 108/3/2
f 108/3/2 107/3/2 109/3/2
f 104/3/2 105/3/2 110/3/2
f 110/3/2 105/3/2 111/3/2
f 112/1/2 113/1/2 116/1/2
f 116/1/2 113/1/2 117/1/2
f 118/3/2 119/3/2 120/3/2
f 120/3/2 119/3/2 121/3/2
f 121/3/2 122/3/2 123/3/2
f 123/3/2 122/3/2 124/3/2
f 114/3/2 115/3/2 127/3/2
f 127/3/2 115/3/2 128/3/2
f 124/3/2 125/3/2 129/3/2
f 129/3/2 125/3/2 130/3/2
f 126/3/2 127/3/2 131/3/2
f 131/3/2 127/3/2 132/3/2
f 130/3/2 131/3/2 133/3/2
f 133/3/2 131/3/2 134/3/2
f 135/3/2 136/3/2 138/3/2
f 138/3/2 136/3/2 139/3/2
f 139/3/2 136/3/2 140/3/2
f 140/3/2 136/3/2 141/3/2
f 137/3/2 138/3/2 143/3/2
f 143/3/2 138/3/2 144/3/2
f 139/3/2 140/3/2 145/3/2
f 145/3/2 140/3/2 146/3/2
f 143/3/2 144/3/2 147/3/2
f 142/3/2 143/3/2 147/3/2
f 147/3/2 144/3/2 148/3/2
f 142/3/2 147/3/2 151/3/2
f 151/3/2 147/3/2 152/3/2
f 152/3/2 153/3/2 154/3/2
f 154/3/2 153/3/2 155/3/2
f 149/3/2 150/3/2 156/3/2
f 156/3/2 150/3/2 157/3/2
f 155/3/2 156/3/2 158/3/2
f 158/3/2 156/3/2 159/3/2
f 160/2/2 161/2/2 164/2/2
f 164/2/2 161/2/2 165/2/2
f 162/3/2 163/3/2 166/3/2
f 166/3/2 163/3/2 167/3/2
f 167/3/2 163/3/2 168/3/2
f 164/3/2 165/3/2 170/3/2
f 165/3/2 166/3/2 170/3/2
f 166/3/2 167/3/2 170/3/2
f 170/3/2 167/3/2 171/3/2
f 171/3/2 167/3/2 172/3/2
f 172/3/2 167/3/2 173/3/2
f 169/3/2 170/3/2 175/3/2
f 175/3/2 170/3/2 176/3/2
f 171/3/2 172/3/2 177/3/2
f 174/3/2 175/3/2 178/3/2
f 178/3/2 175/3/2 179/3/2
f 176/3/2 177/3/2 180/3/2
f 177/3/2 172/3/2 181/3/2
f 180/3/2 177/3/2 181/3/2
f 182/3/2 183/3/2 184/3/2
f 184/3/2 183/3/2 185/3/2
f 188/3/3 187/3/3 186/3/3
f 189/3/3 187/3/3 188/3/3
f 192/3/3 191/3/3 190/3/3
f 193/3/3 191/3/3 192/3/3
f 194/3/3 191/3/3 193/3/3
f 198/3/3 197/3/3 196/3/3
f 199/3/3 197/3/3 198/3/3
f 202/3/3 195/3/3 194/3/3
f 203/3/3 195/3/3 202/3/3
f 204/3/3 201/3/3 200/3/3
f 204/3/3 202/3/3 201/3/3
f 205/3/3 202/3/3 204/3/3
f 207/3/3 206/3/3 205/3/3
f 208/3/3 206/3/3 207/3/3
f 213/3/3 210/3/3 209/3/3
f 214/3/3 210/3/3 213/3/3
f 217/3/3 212/3/3 211/3/3
f 218/3/3 212/3/3 217/3/3
f 220/3/3 215/3/3 214/3/3
f 221/3/3 215/3/3 220/3/3
f 223/2/3 217/2/3 216/2/3
f 223/4/3 218/4/3 217/4/3
f 224/3/3 219/3/3 218/3/3
f 224/4/3 218/4/3 223/4/3
f 225/2/3 223/2/3 216/2/3
f 226/1/3 224/1/3 223/1/3
f 226/2/3 223/2/3 225/2/3
f 227/3/3 219/3/3 224/3/3
f 227/1/3 224/1/3 226/1/3
f 228/3/3 219/3/3 227/3/3
f 229/1/3 226/1/3 225/1/3
f 229/1/3 227/1/3 226/1/3
f 230/1/3 227/1/3 229/1/3
f 232/1/3 229/1/3 225/1/3
f 233/4/3 230/4/3 229/4/3
f 233/1/3 229/1/3 232/1/3
f 234/3/3 231/3/3 230/3/3
f 234/4/3 230/4/3 233/4/3
f 235/3/3 231/3/3 234/3/3
f 237/3/3 222/3/3 221/3/3
f 238/3/3 222/3/3 237/3/3
f 239/3/3 234/3/3 233/3/3
f 240/3/3 234/3/3 239/3/3
f 242/3/3 237/3/3 236/3/3
f 243/3/3 237/3/3 242/3/3
f 244/3/3 242/3/3 241/3/3
f 245/3/3 242/3/3 244/3/3
f 250/3/3 247/3/3 246/3/3
f 251/3/3 247/3/3 250/3/3
f 254/2/3 249/2/3 248/2/3
f 255/3/3 250/3/3 249/3/3
f 255/2/3 249/2/3 254/2/3
f 256/3/3 250/3/3 255/3/3
f 257/3/3 252/3/3 251/3/3
f 258/3/3 252/3/3 257/3/3
f 260/3/3 254/3/3 253/3/3
f 261/3/3 254/3/3 260/3/3
f 262/3/3 259/3/3 258/3/3
f 263/3/3 259/3/3 262/3/3
f 268/3/3 264/3/3 263/3/3
f 269/3/3 264/3/3 268/3/3
f 270/3/3 266/3/3 265/3/3
f 271/3/3 266/3/3 270/3/3
f 275/3/3 268/3/3 267/3/3
f 276/3/3 268/3/3 275/3/3
f 277/2/3 272/2/3 271/2/3
f 278/3/3 273/3/3 272/3/3
f 278/2/3 272/2/3 277/2/3
f 279/3/3 273/3/3 278/3/3
f 280/3/3 275/3/3 274/3/3
f 281/3/3 275/3/3 280/3/3
f 282/3/3 280/3/3 279/3/3
f 283/3/3 280/3/3 282/3/3
f 286/3/3 285/3/3 284/3/3
f 287/3/3 285/3/3 286/3/3
f 290/3/3 289/3/3 288/3/3
f 291/3/3 289/3/3 290/3/3
f 292/3/4 293/3/4 294/3/4
f 294/3/4 293/3/4 295/3/4
f 296/3/4 297/3/4 300/3/4
f 300/3/4 297/3/4 301/3/4
f 298/2/4 299/2/4 303/2/4
f 303/2/4 299/2/4 304/2/4
f 301/3/4 302/3/4 305/3/4
f 305/3/4 302/3/4 306/3/4
f 307/2/4 308/2/4 309/2/4
f 309/2/4 308/2/4 310/2/4
f 311/3/4 312/3/4 313/3/4
f 313/3/4 312/3/4 314/3/4
f 315/3/4 316/3/4 317/3/4
f 317/3/4 316/3/4 318/3/4
f 319/3/4 320/3/4 321/3/4
f 321/3/4 320/3/4 322/3/4
f 322/3/4 323/3/4 325/3/4
f 325/3/4 323/3/4 326/3/4
f 324/3/4 325/3/4 328/3/4
f 328/3/4 325/3/4 329/3/4
f 327/3/4 328/3/4 330/3/4
f 330/3/4 328/3/4 331/3/4
f 332/3/4 333/3/4 336/3/4
f 336/3/4 333/3/4 337/3/4
f 334/3/4 335/3/4 339/3/4
f 337/3/4 338/3/4 339/3/4
f 336/3/4 337/3/4 339/3/4
f 335/3/4 336/3/4 339/3/4
f 339/3/4 338/3/4 340/3/4
f 340/3/4 341/3/4 343/3/4
f 343/3/4 341/3/4 344/3/4
f 342/3/4 343/3/4 345/3/4
f 345/3/4 343/3/4 346/3/4
f 346/3/4 343/3/4 347/3/4
f 347/3/4 343/3/4 348/3/4
f 348/3/4 343/3/4 349/3/4
f 347/3/4 348/3/4 350/3/4
f 350/3/4 348/3/4 351/3/4
f 352/3/4 353/3/4 354/3/4
f 354/3/4 353/3/4 355/3/4
f 356/3/4 357/3/4 358/3/4
f 358/3/4 357/3/4 359/3/4
f 356/3/4 358/3/4 360/3/4
f 359/3/4 357/3/4 361/3/4
f 356/3/4 360/3/4 362/3/4
f 360/3/4 361/3/4 362/3/4
f 361/3/4 357/3/4 363/3/4
f 362/3/4 361/3/4 363/3/4
f 364/3/4 365/3/4 366/3/4
f 366/3/4 365/3/4 367/3/4
f 368/3/4 369/3/4 370/3/4
f 370/3/4 369/3/4 371/3/4
f 376/2/5 373/2/5 372/2/5
f 377/1/5 374/1/5 373/1/5
f 377/2/5 373/2/5 376/2/5
f 378/1/5 374/1/5 377/1/5
f 380/3/5 376/3/5 375/3/5
f 380/3/5 379/3/5 378/3/5
f 380/3/5 378/3/5 377/3/5
f 380/3/5 377/3/5 376/3/5
f 381/3/5 379/3/5 380/3/5
f 382/3/5 379/3/5 381/3/5
f 383/3/5 379/3/5 382/3/5
f 384/3/5 382/3/5 381/3/5
f 385/3/5 382/3/5 384/3/5
f 391/3/5 387/3/5 386/3/5
f 392/3/5 387/3/5 391/3/5
f 393/3/5 389/3/5 388/3/5
f 394/3/5 389/3/5 393/3/5
f 396/2/5 391/2/5 390/2/5
f 397/2/5 391/2/5 396/2/5
f 398/2/5 395/2/5 394/2/5
f 399/2/5 395/2/5 398/2/5
f 404/3/5 401/3/5 400/3/5
f 405/3/5 403/3/5 402/3/5
f 406/3/5 404/3/5 400/3/5
f 407/3/5 404/3/5 406/3/5
f 410/3/5 403/3/5 405/3/5
f 411/3/5 403/3/5 410/3/5
f 412/3/5 409/3/5 408/3/5
f 413/3/5 409/3/5 412/3/5
f 420/3/5 415/3/5 414/3/5
f 421/3/5 415/3/5 420/3/5
f 422/3/5 417/3/5 416/3/5
f 423/3/5 417/3/5 422/3/5
f 424/3/5 419/3/5 418/3/5
f 425/3/5 419/3/5 424/3/5
f 430/3/5 427/3/5 426/3/5
f 431/3/5 427/3/5 430/3/5
f 432/3/5 429/3/5 428/3/5
f 433/3/5 429/3/5 432/3/5
f 436/3/5 435/3/5 434/3/5
f 437/3/5 435/3/5 436/3/5
f 438/3/5 435/3/5 437/3/5
f 439/3/5 435/3/5 438/3/5
f 442/3/5 437/3/5 436/3/5
f 443/3/5 437/3/5 442/3/5
f 444/3/5 439/3/5 438/3/5
f 445/3/5 439/3/5 444/3/5
f 449/3/5 441/3/5 440/3/5
f 450/3/5 441/3/5 449/3/5
f 451/3/5 447/3/5 446/3/5
f 452/3/5 447/3/5 451/3/5
f 454/3/5 449/3/5 448/3/5
f 455/3/5 449/3/5 454/3/5
f 456/3/5 453/3/5 452/3/5
f 457/3/5 453/3/5 456/3/5
f 460/3/5 459/3/5 458/3/5
f 461/3/5 459/3/5 460/3/5
f 462/3/6 463/3/6 466/3/6
f 466/3/6 463/3/6 467/3/6
f 464/3/6 465/3/6 468/3/6
f 468/3/6 465/3/6 469/3/6
f 470/3/6 471/3/6 474/3/6
f 474/3/6 471/3/6 475/3/6
f 472/3/6 473/3/6 476/3/6
f 476/3/6 473/3/6 477/3/6
f 478/3/6 479/3/6 481/3/6
f 481/3/6 479/3/6 482/3/6
f 480/3/6 481/3/6 485/3/6
f 485/3/6 481/3/6 486/3/6
f 482/3/6 483/3/6 487/3/6
f 487/3/6 483/3/6 488/3/6
f 484/3/6 485/3/6 491/3/6
f 491/3/6 485/3/6 492/3/6
f 488/3/6 489/3/6 493/3/6
f 493/3/6 489/3/6 494/3/6
f 490/3/6 491/3/6 496/3/6
f 496/3/6 491/3/6 497/3/6
f 494/3/6 495/3/6 499/3/6
f 499/3/6 495/3/6 500/3/6
f 497/3/6 498/3/6 501/3/6
f 501/3/6 498/3/6 502/3/6
f 503/3/6 504/3/6 505/3/6
f 505/3/6 504/3/6 506/3/6
f 507/3/6 508/3/6 512/3/6
f 512/3/6 508/3/6 513/3/6
f 509/3/6 510/3/6 514/3/6
f 514/3/6 510/3/6 515/3/6
f 511/3/6 512/3/6 517/3/6
f 517/3/6 512/3/6 518/3/6
f 513/3/6 514/3/6 519/3/6
f 519/3/6 514/3/6 520/3/6
f 516/3/6 517/3/6 522/3/6
f 522/3/6 517/3/6 523/3/6
f 520/3/6 521/3/6 527/3/6
f 527/3/6 521/3/6 528/3/6
f 524/3/6 525/3/6 529/3/6
f 529/3/6 525/3/6 530/3/6
f 526/3/6 527/3/6 531/3/6
f 531/3/6 527/3/6 532/3/6
f 530/3/6 531/3/6 533/3/6
f 533/3/6 531/3/6 534/3/6
f 535/3/6 536/3/6 538/3/6
f 538/3/6 536/3/6 539/3/6
f 537/3/6 538/3/6 541/3/6
f 541/3/6 538/3/6 542/3/6
f 539/3/6 540/3/6 543/3/6
f 543/3/6 540/3/6 544/3/6
f 542/3/6 543/3/6 545/3/6
f 545/3/6 543/3/6 546/3/6
f 547/3/6 548/3/6 549/3/6
f 549/3/6 548/3/6 550/3/6
