# MagicaVoxel @ Ephtracy

# material
mtllib skybox.mtl
usemtl palette

# normals
vn -1 0 0
vn 1 0 0
vn 0 0 1
vn 0 0 -1
vn 0 -1 0
vn 0 1 0

# texcoords
vt 0.00976563 0.5
vt 0.728516 0.5
vt 0.841797 0.5

# verts
v -20 0 20
v -20 0 -20
v -20 40 20
v -20 40 -20
v 19 1 19
v 19 1 -19
v 19 39 19
v 19 39 -19
v -19 1 19
v -19 1 -19
v -19 39 19
v -19 39 -19
v 20 0 20
v 20 0 -20
v 20 40 20
v 20 40 -20
v -20 0 20
v -20 40 20
v -13 26 20
v -13 35 20
v -11 28 20
v -11 33 20
v -5 28 20
v -5 33 20
v -3 26 20
v -3 35 20
v 20 0 20
v 20 40 20
v -19 1 -19
v -19 39 -19
v 19 1 -19
v 19 39 -19
v -19 1 19
v -19 39 19
v -13 26 19
v -13 35 19
v -11 28 19
v -11 33 19
v -5 28 19
v -5 33 19
v -3 26 19
v -3 35 19
v 19 1 19
v 19 39 19
v -20 0 -20
v -20 40 -20
v 20 0 -20
v 20 40 -20
v -20 0 20
v 20 0 20
v -20 0 -20
v 20 0 -20
v -19 39 19
v 19 39 19
v -19 39 -19
v 19 39 -19
v -19 1 19
v 19 1 19
v -19 1 -19
v 19 1 -19
v -20 40 20
v 20 40 20
v -20 40 -20
v 20 40 -20

# faces
f 3/2/1 2/2/1 1/2/1
f 4/2/1 2/2/1 3/2/1
f 7/2/1 6/2/1 5/2/1
f 8/2/1 6/2/1 7/2/1
f 9/2/2 10/2/2 11/2/2
f 11/2/2 10/2/2 12/2/2
f 13/2/2 14/2/2 15/2/2
f 15/2/2 14/2/2 16/2/2
f 19/2/3 18/2/3 17/2/3
f 20/2/3 18/2/3 19/2/3
f 21/3/3 20/3/3 19/3/3
f 22/3/3 20/3/3 21/3/3
f 23/3/3 21/3/3 19/3/3
f 23/1/3 22/1/3 21/1/3
f 24/3/3 20/3/3 22/3/3
f 24/1/3 22/1/3 23/1/3
f 25/2/3 19/2/3 17/2/3
f 25/3/3 23/3/3 19/3/3
f 25/3/3 24/3/3 23/3/3
f 26/3/3 20/3/3 24/3/3
f 26/3/3 24/3/3 25/3/3
f 26/2/3 18/2/3 20/2/3
f 27/2/3 25/2/3 17/2/3
f 27/2/3 26/2/3 25/2/3
f 28/2/3 18/2/3 26/2/3
f 28/2/3 26/2/3 27/2/3
f 31/2/3 30/2/3 29/2/3
f 32/2/3 30/2/3 31/2/3
f 33/2/4 34/2/4 35/2/4
f 35/2/4 34/2/4 36/2/4
f 35/3/4 36/3/4 37/3/4
f 37/3/4 36/3/4 38/3/4
f 35/3/4 37/3/4 39/3/4
f 37/1/4 38/1/4 39/1/4
f 38/3/4 36/3/4 40/3/4
f 39/1/4 38/1/4 40/1/4
f 33/2/4 35/2/4 41/2/4
f 35/3/4 39/3/4 41/3/4
f 39/3/4 40/3/4 41/3/4
f 40/3/4 36/3/4 42/3/4
f 41/3/4 40/3/4 42/3/4
f 36/2/4 34/2/4 42/2/4
f 33/2/4 41/2/4 43/2/4
f 41/2/4 42/2/4 43/2/4
f 42/2/4 34/2/4 44/2/4
f 43/2/4 42/2/4 44/2/4
f 45/2/4 46/2/4 47/2/4
f 47/2/4 46/2/4 48/2/4
f 51/2/5 50/2/5 49/2/5
f 52/2/5 50/2/5 51/2/5
f 55/2/5 54/2/5 53/2/5
f 56/2/5 54/2/5 55/2/5
f 57/2/6 58/2/6 59/2/6
f 59/2/6 58/2/6 60/2/6
f 61/2/6 62/2/6 63/2/6
f 63/2/6 62/2/6 64/2/6
