# MagicaVoxel @ Ephtracy

# material
mtllib sword.mtl
usemtl palette

# normals
vn -1 0 0
vn 1 0 0
vn 0 0 1
vn 0 0 -1
vn 0 -1 0
vn 0 1 0

# texcoords
vt 0.0449219 0.5
vt 0.0488281 0.5
vt 0.716797 0.5
vt 0.841797 0.5
vt 0.966797 0.5

# verts
v -9 2 0.5
v -9 2 -0.5
v -9 3 0.5
v -9 3 -0.5
v -5 1 0.5
v -5 1 -0.5
v -5 2 0.5
v -5 2 -0.5
v -5 3 0.5
v -5 3 -0.5
v -5 4 0.5
v -5 4 -0.5
v -4 0 0.5
v -4 0 -0.5
v -4 1 0.5
v -4 1 -0.5
v -4 4 0.5
v -4 4 -0.5
v -4 5 0.5
v -4 5 -0.5
v -3 0 0.5
v -3 0 -0.5
v -3 1 0.5
v -3 1 -0.5
v -3 2 0.5
v -3 2 -0.5
v -3 3 0.5
v -3 3 -0.5
v -3 4 0.5
v -3 4 -0.5
v -3 5 0.5
v -3 5 -0.5
v -1 2 0.5
v -1 2 -0.5
v -1 3 0.5
v -1 3 -0.5
v -9 2 0.5
v -9 3 0.5
v -5 1 0.5
v -5 2 0.5
v -5 3 0.5
v -5 4 0.5
v -4 0 0.5
v -4 1 0.5
v -4 2 0.5
v -4 3 0.5
v -4 4 0.5
v -4 5 0.5
v -3 0 0.5
v -3 1 0.5
v -3 2 0.5
v -3 3 0.5
v -3 4 0.5
v -3 5 0.5
v -1 2 0.5
v -1 3 0.5
v -9 2 -0.5
v -9 3 -0.5
v -5 1 -0.5
v -5 2 -0.5
v -5 3 -0.5
v -5 4 -0.5
v -4 0 -0.5
v -4 1 -0.5
v -4 2 -0.5
v -4 3 -0.5
v -4 4 -0.5
v -4 5 -0.5
v -3 0 -0.5
v -3 1 -0.5
v -3 2 -0.5
v -3 3 -0.5
v -3 4 -0.5
v -3 5 -0.5
v -1 2 -0.5
v -1 3 -0.5
v -4 0 0.5
v -3 0 0.5
v -4 0 -0.5
v -3 0 -0.5
v -5 1 0.5
v -4 1 0.5
v -5 1 -0.5
v -4 1 -0.5
v -9 2 0.5
v -5 2 0.5
v -3 2 0.5
v -1 2 0.5
v -9 2 -0.5
v -5 2 -0.5
v -3 2 -0.5
v -1 2 -0.5
v -9 3 0.5
v -5 3 0.5
v -3 3 0.5
v -1 3 0.5
v -9 3 -0.5
v -5 3 -0.5
v -3 3 -0.5
v -1 3 -0.5
v -5 4 0.5
v -4 4 0.5
v -5 4 -0.5
v -4 4 -0.5
v -4 5 0.5
v -3 5 0.5
v -4 5 -0.5
v -3 5 -0.5

# faces
f 3/5/1 2/5/1 1/5/1
f 4/5/1 2/5/1 3/5/1
f 7/3/1 6/3/1 5/3/1
f 8/3/1 6/3/1 7/3/1
f 11/3/1 10/3/1 9/3/1
f 12/3/1 10/3/1 11/3/1
f 15/3/1 14/3/1 13/3/1
f 16/3/1 14/3/1 15/3/1
f 19/3/1 18/3/1 17/3/1
f 20/3/1 18/3/1 19/3/1
f 21/3/2 22/3/2 23/3/2
f 23/3/2 22/3/2 24/3/2
f 23/1/2 24/1/2 25/1/2
f 25/1/2 24/1/2 26/1/2
f 27/1/2 28/1/2 29/1/2
f 29/1/2 28/1/2 30/1/2
f 29/3/2 30/3/2 31/3/2
f 31/3/2 30/3/2 32/3/2
f 33/4/2 34/4/2 35/4/2
f 35/4/2 34/4/2 36/4/2
f 40/5/3 38/5/3 37/5/3
f 41/5/3 38/5/3 40/5/3
f 44/3/3 40/3/3 39/3/3
f 45/1/3 41/1/3 40/1/3
f 45/3/3 40/3/3 44/3/3
f 46/3/3 42/3/3 41/3/3
f 46/1/3 41/1/3 45/1/3
f 47/3/3 42/3/3 46/3/3
f 49/3/3 44/3/3 43/3/3
f 50/1/3 45/1/3 44/1/3
f 50/3/3 44/3/3 49/3/3
f 51/2/3 46/2/3 45/2/3
f 51/1/3 45/1/3 50/1/3
f 52/1/3 47/1/3 46/1/3
f 52/2/3 46/2/3 51/2/3
f 53/3/3 48/3/3 47/3/3
f 53/1/3 47/1/3 52/1/3
f 54/3/3 48/3/3 53/3/3
f 55/4/3 52/4/3 51/4/3
f 56/4/3 52/4/3 55/4/3
f 57/5/4 58/5/4 60/5/4
f 60/5/4 58/5/4 61/5/4
f 59/3/4 60/3/4 64/3/4
f 60/1/4 61/1/4 65/1/4
f 64/3/4 60/3/4 65/3/4
f 61/3/4 62/3/4 66/3/4
f 65/1/4 61/1/4 66/1/4
f 66/3/4 62/3/4 67/3/4
f 63/3/4 64/3/4 69/3/4
f 64/1/4 65/1/4 70/1/4
f 69/3/4 64/3/4 70/3/4
f 65/2/4 66/2/4 71/2/4
f 70/1/4 65/1/4 71/1/4
f 66/1/4 67/1/4 72/1/4
f 71/2/4 66/2/4 72/2/4
f 67/3/4 68/3/4 73/3/4
f 72/1/4 67/1/4 73/1/4
f 73/3/4 68/3/4 74/3/4
f 71/4/4 72/4/4 75/4/4
f 75/4/4 72/4/4 76/4/4
f 79/3/5 78/3/5 77/3/5
f 80/3/5 78/3/5 79/3/5
f 83/3/5 82/3/5 81/3/5
f 84/3/5 82/3/5 83/3/5
f 89/5/5 86/5/5 85/5/5
f 90/5/5 86/5/5 89/5/5
f 91/4/5 88/4/5 87/4/5
f 92/4/5 88/4/5 91/4/5
f 93/5/6 94/5/6 97/5/6
f 97/5/6 94/5/6 98/5/6
f 95/4/6 96/4/6 99/4/6
f 99/4/6 96/4/6 100/4/6
f 101/3/6 102/3/6 103/3/6
f 103/3/6 102/3/6 104/3/6
f 105/3/6 106/3/6 107/3/6
f 107/3/6 106/3/6 108/3/6
